<?xml version="1.0" encoding="UTF-8"?>
<svg width="65px" height="80px" viewBox="0 0 65 80" version="1.1" xmlns="http://www.w3.org/2000/svg" xmlns:xlink="http://www.w3.org/1999/xlink">
    <!-- Generator: Sketch 56.3 (81716) - https://sketch.com -->
    <title>Group 5</title>
    <desc>Created with Sketch.</desc>
    <g id="Page-1" stroke="none" stroke-width="1" fill="none" fill-rule="evenodd">
        <g id="Artboard" transform="translate(-732.000000, -1355.000000)">
            <g id="Group-5" transform="translate(732.000000, 1355.000000)">
                <rect id="Rectangle" fill="#FD425A" x="57" y="12" width="6" height="23"></rect>
                <g id="form" fill="#FFFFFF" fill-rule="nonzero">
                    <rect id="Rectangle" x="20.0391389" y="20.0391389" width="2.50489237" height="2.34833659"></rect>
                    <rect id="Rectangle" x="25.0489237" y="20.0391389" width="2.50489237" height="2.34833659"></rect>
                    <rect id="Rectangle" x="30.0587084" y="20.0391389" width="2.50489237" height="2.34833659"></rect>
                    <path d="M50.0978474,77.6516634 L2.34833659,77.6516634 L2.34833659,17.3776908 L12.5244618,17.3776908 L12.5244618,21.2915851 L6.26223092,21.2915851 L6.26223092,73.7377691 L46.183953,73.7377691 L46.183953,21.2915851 L39.9217221,21.2915851 L39.9217221,17.3776908 L47.592955,17.3776908 L47.592955,15.0293542 L34.9119374,15.0293542 L34.9119374,7.5146771 L17.5342466,7.5146771 L17.5342466,15.0293542 L0,15.0293542 L0,80 L52.446184,80 L52.446184,26.1448141 L50.0978474,26.1448141 L50.0978474,77.6516634 Z M43.8356164,23.6399217 L43.8356164,71.3894325 L8.61056751,71.3894325 L8.61056751,23.6399217 L12.5244618,23.6399217 L12.5244618,27.3972603 L39.9217221,27.3972603 L39.9217221,23.6399217 L43.8356164,23.6399217 Z M37.5733855,25.0489237 L14.8727984,25.0489237 L14.8727984,17.3776908 L37.5733855,17.3776908 L37.5733855,25.0489237 Z M19.8825832,9.8630137 L32.5636008,9.8630137 L32.5636008,15.0293542 L19.8825832,15.0293542 L19.8825832,9.8630137 Z" id="Shape"></path>
                    <path d="M12.5244618,38.6692759 L19.8825832,38.6692759 L19.8825832,31.3111546 L12.5244618,31.3111546 L12.5244618,38.6692759 Z M14.8727984,33.6594912 L17.5342466,33.6594912 L17.5342466,36.3209393 L14.8727984,36.3209393 L14.8727984,33.6594912 Z" id="Shape"></path>
                    <path d="M12.5244618,66.223092 L19.8825832,66.223092 L19.8825832,58.8649706 L12.5244618,58.8649706 L12.5244618,66.223092 Z M14.8727984,61.2133072 L17.5342466,61.2133072 L17.5342466,63.8747554 L14.8727984,63.8747554 L14.8727984,61.2133072 Z" id="Shape"></path>
                    <path d="M12.5244618,52.446184 L19.8825832,52.446184 L19.8825832,45.0880626 L12.5244618,45.0880626 L12.5244618,52.446184 Z M14.8727984,47.4363992 L17.5342466,47.4363992 L17.5342466,50.0978474 L14.8727984,50.0978474 L14.8727984,47.4363992 Z" id="Shape"></path>
                    <rect id="Rectangle" x="23.7964775" y="31.3111546" width="16.2818004" height="2.34833659"></rect>
                    <rect id="Rectangle" x="23.7964775" y="36.3209393" width="13.776908" height="2.34833659"></rect>
                    <rect id="Rectangle" x="23.7964775" y="45.0880626" width="16.2818004" height="2.34833659"></rect>
                    <rect id="Rectangle" x="23.7964775" y="50.0978474" width="13.776908" height="2.34833659"></rect>
                    <rect id="Rectangle" x="23.7964775" y="58.8649706" width="16.2818004" height="2.34833659"></rect>
                    <rect id="Rectangle" x="23.7964775" y="63.8747554" width="13.776908" height="2.34833659"></rect>
                    <path d="M64.9706458,5.00978474 L63.7181996,5.00978474 L63.7181996,0 L56.3600783,0 L56.3600783,5.00978474 L55.1076321,5.00978474 L55.1076321,10.0195695 L50.0978474,10.0195695 L50.0978474,23.6399217 L52.446184,23.6399217 L52.446184,12.3679061 L55.1076321,12.3679061 L55.1076321,42.9128767 L58.8649706,46.6702153 L58.8649706,48.6888454 L61.2133072,48.6888454 L61.2133072,46.6702153 L64.9706458,42.9128767 L64.9706458,5.00978474 Z M58.7084149,2.34833659 L61.369863,2.34833659 L61.369863,5.00978474 L58.7084149,5.00978474 L58.7084149,2.34833659 Z M57.4559687,7.35812133 L62.6223092,7.35812133 L62.6223092,10.0195695 L57.4559687,10.0195695 L57.4559687,7.35812133 Z M62.6223092,12.3679061 L62.6223092,35.0684932 L57.4559687,35.0684932 L57.4559687,12.3679061 L62.6223092,12.3679061 Z M60.0391389,44.5235225 L57.4559687,41.9403523 L57.4559687,37.4168297 L62.6223092,37.4168297 L62.6223092,41.9403523 L60.0391389,44.5235225 Z" id="Shape"></path>
                </g>
            </g>
        </g>
    </g>
</svg>