<?xml version="1.0" encoding="UTF-8"?>
<svg width="70px" height="70px" viewBox="0 0 70 70" version="1.1" xmlns="http://www.w3.org/2000/svg" xmlns:xlink="http://www.w3.org/1999/xlink">
    <!-- Generator: Sketch 56.3 (81716) - https://sketch.com -->
    <title>layout (1)</title>
    <desc>Created with Sketch.</desc>
    <g id="Page-1" stroke="none" stroke-width="1" fill="none" fill-rule="evenodd">
        <g id="Artboard" transform="translate(-1261.000000, -1360.000000)" fill="#FFFFFF" fill-rule="nonzero">
            <g id="layout-(1)" transform="translate(1261.000000, 1360.000000)">
                <path d="M68.7035558,0 L51.8517779,0 L35,0 L18.1482221,0 L1.29644415,0 C0.579856854,0 0,0.580522209 0,1.29644415 L0,18.1482221 L0,35 L0,51.8517779 L0,68.7035558 C0,69.4194778 0.579856854,70 1.29644415,70 L18.1482221,70 L35,70 L51.8517779,70 L68.7035558,70 C69.4201431,70 70,69.4194778 70,68.7035558 L70,51.8517779 L70,35 L70,18.1482221 L70,1.29644415 C70,0.580522209 69.4201431,0 68.7035558,0 Z M16.8517779,67.4074444 L2.59255563,67.4074444 L2.59255563,53.1482221 L16.8517779,53.1482221 L16.8517779,67.4074444 Z M16.8517779,50.5553338 L2.59255563,50.5553338 L2.59255563,36.2961115 L16.8517779,36.2961115 L16.8517779,50.5553338 Z M16.8517779,33.7035558 L2.59255563,33.7035558 L2.59255563,19.4443336 L16.8517779,19.4443336 L16.8517779,33.7035558 Z M16.8517779,16.8517779 L2.59255563,16.8517779 L2.59255563,2.59255563 L16.8517779,2.59255563 L16.8517779,16.8517779 Z M33.7035558,67.4074444 L19.4443336,67.4074444 L19.4443336,53.1482221 L33.7035558,53.1482221 L33.7035558,67.4074444 Z M33.7035558,50.5553338 L19.4443336,50.5553338 L19.4443336,36.2961115 L33.7035558,36.2961115 L33.7035558,50.5553338 Z M33.7035558,33.7035558 L19.4443336,33.7035558 L19.4443336,19.4443336 L33.7035558,19.4443336 L33.7035558,33.7035558 Z M33.7035558,16.8517779 L19.4443336,16.8517779 L19.4443336,2.59255563 L33.7035558,2.59255563 L33.7035558,16.8517779 Z M50.5553338,67.4074444 L36.2961115,67.4074444 L36.2961115,53.1482221 L50.5553338,53.1482221 L50.5553338,67.4074444 Z M50.5553338,50.5553338 L36.2961115,50.5553338 L36.2961115,36.2961115 L50.5553338,36.2961115 L50.5553338,50.5553338 Z M50.5556664,33.7035558 L36.2964442,33.7035558 L36.2964442,19.4443336 L50.5556664,19.4443336 L50.5556664,33.7035558 Z M50.5556664,16.8517779 L36.2964442,16.8517779 L36.2964442,2.59255563 L50.5556664,2.59255563 L50.5556664,16.8517779 Z M67.4074444,67.4074444 L53.1482221,67.4074444 L53.1482221,53.1482221 L67.4074444,53.1482221 L67.4074444,67.4074444 Z M67.4074444,50.5553338 L53.1482221,50.5553338 L53.1482221,36.2961115 L67.4074444,36.2961115 L67.4074444,50.5553338 Z M67.4074444,33.7035558 L53.1482221,33.7035558 L53.1482221,19.4443336 L67.4074444,19.4443336 L67.4074444,33.7035558 Z M67.4074444,16.8517779 L53.1482221,16.8517779 L53.1482221,2.59255563 L67.4074444,2.59255563 L67.4074444,16.8517779 Z" id="Shape"></path>
            </g>
        </g>
    </g>
</svg>