<?xml version="1.0" encoding="UTF-8"?>
<svg width="142px" height="215px" viewBox="0 0 142 215" version="1.1" xmlns="http://www.w3.org/2000/svg" xmlns:xlink="http://www.w3.org/1999/xlink">
    <!-- Generator: Sketch 53.2 (72643) - https://sketchapp.com -->
    <title>Giraff standing</title>
    <desc>Created with Sketch.</desc>
    <g id="Giraff-standing" stroke="none" stroke-width="1" fill="none" fill-rule="evenodd">
        <ellipse id="Oval" fill="#E6E9EB" cx="61.5" cy="201.5" rx="61.5" ry="13.5"></ellipse>
        <path d="M104.4533,6.9907 C104.8093,4.8437 108.2193,1.7907 111.4483,2.6897 C114.6803,3.5827 117.7313,6.6337 116.1183,10.7617 C114.5003,14.8897 110.3713,13.9917 110.3713,13.9917 C110.0153,16.3247 108.4683,19.2837 108.4683,19.2837 C107.8103,19.0087 107.1573,18.7537 106.5043,18.5187 L107.6823,13.4557 C106.6053,13.0947 104.0963,9.1497 104.4533,6.9907 Z M57.3663,18.5952 C59.6213,16.1152 64.1333,16.8762 65.5823,18.5092 C67.0363,20.1422 67.0113,24.8222 66.2913,25.6992 L69.9913,29.3532 L70.0783,29.4132 C69.6593,29.9652 69.2513,30.5352 68.8473,31.1232 L68.7363,31.0462 C68.7363,31.0462 65.8473,29.3682 64.3013,27.5872 C64.3013,27.5872 61.2903,30.5462 57.7243,27.9132 C54.1573,25.2812 55.1103,21.0752 57.3663,18.5952 Z" id="Combined-Shape" fill="#432918"></path>
        <path d="M11.3019,173.9067 C10.2399,177.8977 12.3019,181.9657 12.5719,184.5817 C16.3279,182.8517 19.3899,178.5517 19.6599,175.6827 C19.9139,172.9467 18.3129,170.6557 18.3129,170.6557 C19.3899,157.9147 31.7699,152.7097 31.7699,152.7097 C32.4029,151.4237 33.1169,150.2547 33.9279,149.2287 C16.6999,150.4067 14.9659,169.9357 14.9659,169.9357 C14.9659,169.9357 12.0409,171.1257 11.3019,173.9067" id="Fill-5" fill="#432918"></path>
        <path d="M74.6915,184.5815 C79.6115,183.2975 82.8255,181.3215 84.8975,179.4485 L84.9795,179.5405 C84.9795,179.5405 83.8975,194.1715 84.3965,200.7965 L84.2655,200.8065 C84.2655,200.8065 77.7125,201.5245 75.7375,200.8065 C73.7625,200.0855 74.6915,184.5815 74.6915,184.5815 Z M43.547,182.0874 C45.61,183.2404 48.375,184.3324 52.039,185.0674 L52.039,185.0724 C52.039,185.0724 51.693,198.6514 50.793,199.9054 C49.896,201.1624 44.773,200.2704 43.476,199.9054 C44.063,193.8044 43.604,183.4034 43.547,182.0874 Z" id="Combined-Shape" fill="#D17F0C"></path>
        <path d="M43.4757,199.9057 C43.2417,202.3357 42.8377,204.0867 42.1797,204.3047 C39.7557,205.1127 31.9537,205.3827 30.6057,202.9597 C29.3617,200.7177 24.1557,168.2627 31.7697,152.7097 C32.4027,151.4237 33.1177,150.2547 33.9277,149.2287 C48.1917,131.1947 73.6767,134.3177 77.4427,130.0107 C81.1717,125.7497 82.9577,103.2147 82.9947,102.7397 C88.7907,106.0307 95.8487,107.2767 104.4157,105.7707 C104.4157,105.7707 105.7067,125.9737 103.8257,151.0057 C101.9367,176.0407 101.4017,201.3467 98.7117,203.7647 C96.0167,206.1887 86.5967,206.1887 84.9797,203.7647 C84.6887,203.3267 84.5037,202.2547 84.3967,200.7967 C83.8977,194.1717 84.9797,179.5407 84.9797,179.5407 L84.8977,179.4487 C82.8257,181.3217 79.6117,183.2977 74.6917,184.5817 C71.4057,185.4447 67.3527,185.9957 62.3677,186.0017 C58.3097,186.0057 54.9017,185.6477 52.0387,185.0677 C48.3747,184.3327 45.6097,183.2407 43.5467,182.0877 C43.6037,183.4037 44.0627,193.8037 43.4757,199.9057 Z M118.425233,25.1985045 C120.808188,27.0714824 123.160143,29.2864483 125.4511,31.8834 C127.4511,34.1444 129.4011,36.6954 131.2781,39.5644 C139.9181,52.7494 143.5221,67.3904 139.4441,79.7754 C139.4801,79.1994 140.7051,58.0784 121.3181,53.5614 C101.6711,48.9844 78.5191,63.2524 75.0231,73.7494 C71.5231,84.2514 74.3801,94.6364 81.7031,101.9584 C71.9001,95.6824 65.8891,83.3174 62.3671,68.6354 C60.8311,62.2274 60.6161,56.2464 61.3371,50.7964 C61.7751,47.4574 62.5611,44.3244 63.6071,41.4114 C64.0913431,40.0467835 64.6368393,38.7349127 65.2273579,37.4749336 C64.6364226,38.7345139 64.0909356,40.0465513 63.6067,41.4119 L63.4647,41.3609 C47.2367,28.3419 34.3107,30.1489 34.3107,30.1489 C40.0057,23.6639 65.6737,36.1749 65.6737,36.1749 L65.8220258,36.2525471 C66.7461,34.4244 67.7661,32.7104 68.8481,31.1234 C69.2511,30.5354 69.6591,29.9654 70.0781,29.4134 C74.3801,23.7144 79.4731,19.8604 83.6371,18.2994 C89.7811,15.9924 97.9511,15.4684 106.5041,18.5194 C107.1571,18.7534 107.8111,19.0084 108.4681,19.2834 C110.2341,20.0244 112.0151,20.9224 113.7911,21.9944 C113.823965,21.9417734 128.848208,-2.27273313 137.1112,0.1736 C137.1112,0.1736 125.217239,5.53758263 118.425233,25.1985045 Z M65.2273579,37.4749336 L65.2914708,37.3388577 C65.2700412,37.3841481 65.24867,37.4295067 65.2273579,37.4749336 Z" id="Combined-Shape" fill="#F9970E"></path>
        <path d="M118.4249,25.1987 C125.2169,5.5377 137.1119,0.1737 137.1119,0.1737 C141.9599,1.6127 138.8989,27.0917 125.4509,31.8837 C123.1599,29.2867 120.8079,27.0717 118.4249,25.1987 Z M34.3107,30.1489 C34.3107,30.1489 47.2367,28.3419 63.4647,41.3609 L63.6067,41.4119 C62.5607,44.3249 61.7757,47.4579 61.3367,50.7959 L61.0817,50.7599 C47.1507,53.8779 30.9787,33.9459 34.3107,30.1489 Z M82.9943,102.7397 C82.5553,102.4947 82.1213,102.2347 81.7033,101.9587 C74.3803,94.6357 71.5223,84.2517 75.0223,73.7497 C78.5183,63.2527 101.6713,48.9837 121.3183,53.5607 C140.7053,58.0787 139.4793,79.1997 139.4443,79.7747 L139.4443,79.7867 C136.2803,89.3947 128.4973,97.6517 114.8563,102.8217 C111.1473,104.2247 107.6723,105.1997 104.4163,105.7707 C95.8483,107.2767 88.7913,106.0307 82.9943,102.7397 Z" id="Combined-Shape" fill="#F0DDB3"></path>
        <path d="M124.2775,62.603 C123.9605,61.819 124.3395,60.926 125.1235,60.609 C125.9065,60.291 126.7985,60.671 127.1165,61.455 C127.4325,62.24 127.0545,63.131 126.2695,63.449 C125.4865,63.765 124.5945,63.386 124.2775,62.603 Z M77.6535,83.8862 C77.3365,83.1032 77.7155,82.2102 78.5005,81.8942 C79.2825,81.5762 80.1745,81.9562 80.4925,82.7402 C80.8095,83.5242 80.4295,84.4152 79.6465,84.7322 C78.8625,85.0492 77.9695,84.6712 77.6535,83.8862 Z M102.8673,97.2827 C100.9283,97.2827 98.8503,97.1177 96.6303,96.7497 C96.0853,96.6597 95.7163,96.1447 95.8063,95.5997 C95.8963,95.0547 96.4113,94.6777 96.9563,94.7767 C117.4803,98.1787 124.7213,83.3287 124.7923,83.1777 C125.0263,82.6787 125.6243,82.4627 126.1233,82.6997 C126.6223,82.9347 126.8363,83.5307 126.6003,84.0307 C126.5313,84.1787 120.1323,97.2827 102.8673,97.2827 Z" id="Combined-Shape" fill="#594A42"></path>
        <path d="M102.713,48.144 C102.092,46.523 102.619,44.812 103.892,44.324 C105.164,43.836 106.698,44.759 107.319,46.38 C107.941,48.003 107.414,49.714 106.142,50.203 C104.869,50.688 103.335,49.767 102.713,48.144 Z M81.7902,55.7993 C81.1692,54.1763 81.6962,52.4663 82.9692,51.9793 C84.2402,51.4913 85.7752,52.4123 86.3972,54.0353 C87.0192,55.6583 86.4912,57.3683 85.2192,57.8573 C83.9472,58.3433 82.4112,57.4223 81.7902,55.7993 Z" id="Combined-Shape" fill="#594A42"></path>
        <path d="M63.6066,41.4116 C64.2506,39.5996 65.0016,37.8806 65.8226,36.2526 C66.7466,34.4246 67.7656,32.7106 68.8476,31.1236 C69.2516,30.5356 69.6596,29.9656 70.0786,29.4136 C73.5536,24.8096 77.5446,21.4116 81.1456,19.4526 C85.6096,23.7236 89.7166,27.5546 88.1596,35.2976 C86.5436,43.3426 74.8806,46.2556 71.0056,53.0906 C68.7166,57.1276 68.3026,59.6646 62.8616,60.5556 C62.2406,60.6576 61.6566,60.7026 61.0976,60.7086 C60.8206,57.2416 60.9226,53.9316 61.3366,50.7966 C61.7756,47.4576 62.5606,44.3246 63.6066,41.4116 Z M77.4425,130.0112 C79.7025,127.4292 81.2495,118.1342 82.1245,111.1072 C87.6865,112.3632 90.7955,114.8682 88.6515,121.6252 C87.2795,125.9512 83.5825,132.4032 78.4395,132.1232 C77.2335,132.0582 76.2185,131.7402 75.3795,131.2262 C76.3105,130.8882 77.0165,130.4972 77.4425,130.0112 Z M69.6271,132.5561 C70.0241,140.9991 74.5141,151.9231 63.0201,155.0021 C59.3401,155.9891 54.4101,156.1341 50.7061,155.3201 C49.3111,155.0141 48.2001,154.2891 46.7301,154.1691 C45.0591,154.0331 43.2621,155.0241 41.6141,154.6381 C38.5351,153.9151 36.5981,150.4761 35.8381,147.0101 C46.0061,136.1131 60.5721,134.1611 69.6271,132.5561 Z M88.3595,144.0718 C96.2295,144.8598 91.6705,160.4058 83.6055,154.9098 C78.5815,151.4868 85.4335,141.0898 89.0405,144.0718 L88.3595,144.0718 Z M47.2521,162.1626 C48.4271,161.5416 49.8851,160.8936 50.5971,161.7616 C50.5671,163.3526 50.5051,164.9426 50.9091,166.4806 C49.3621,167.1856 47.5571,167.3486 45.8851,167.1536 C45.4081,165.2476 46.2151,163.6106 47.2521,162.1626 Z M95.504,123.6587 C98.343,126.0317 96.119,130.6147 92.484,129.7627 C87.3,128.5447 92.583,124.2217 95.504,123.6587 Z M75.4074,138.9341 C76.9594,138.4811 78.3194,137.9381 78.4094,139.5631 C78.6014,140.3071 78.4144,141.4721 78.3584,142.2351 C75.8504,143.4751 74.2134,141.3491 75.4074,138.9341 Z" id="Combined-Shape" fill="#8E4208"></path>
    </g>
</svg>