<?xml version="1.0" encoding="UTF-8"?>
<svg width="237px" height="372px" viewBox="0 0 237 372" version="1.1" xmlns="http://www.w3.org/2000/svg" xmlns:xlink="http://www.w3.org/1999/xlink">
    <!-- Generator: Sketch 56.3 (81716) - https://sketch.com -->
    <title>Giraff standing Copy</title>
    <desc>Created with Sketch.</desc>
    <g id="Page-1" stroke="none" stroke-width="1" fill="none" fill-rule="evenodd">
        <g id="Giraff-standing-Copy" fill-rule="nonzero">
            <path d="M169.236176,12.1149042 C169.875968,8.21057184 176.00432,2.65867305 181.807384,4.29350994 C187.61584,5.91743579 193.099007,11.4656976 190.200171,18.9724903 C187.292349,26.479283 179.871832,24.8462646 179.871832,24.8462646 C179.232039,29.0888391 176.451816,34.4697983 176.451816,34.4697983 C175.269278,33.9697092 174.095725,33.5059902 172.922173,33.0786413 L175.03924,23.8715454 C173.103687,23.2150648 168.594586,16.0410586 169.236176,12.1149042 Z M84.6128023,33.217757 C88.665422,28.7078621 96.7742559,30.0917452 99.3783562,33.0613654 C101.991442,36.0309857 101.946513,44.5415938 100.65255,46.1364235 L107.302081,52.7812444 L107.458435,52.8903548 C106.705421,53.8941701 105.972175,54.9307185 105.246118,56 L105.046632,55.859975 C105.046632,55.859975 99.8546064,52.808522 97.0761806,49.5697628 C97.0761806,49.5697628 91.6648998,54.950722 85.2561894,50.1625958 C78.8456817,45.376288 80.5583853,37.7276518 84.6128023,33.217757 Z" id="Combined-Shape" fill="#432918"></path>
            <path d="M0.552625571,313.976862 C-1.39279614,321.088932 2.38447276,328.338217 2.8790715,333 C9.75948953,329.917093 15.3686056,322.254377 15.8632044,317.141742 C16.3284935,312.266116 13.3957062,308.183492 13.3957062,308.183492 C15.3686056,285.478686 38.0468738,276.203236 38.0468738,276.203236 C39.206433,273.911549 40.5143719,271.82836 42,270 C10.4409367,272.099228 7.26451366,306.900433 7.26451366,306.900433 C7.26451366,306.900433 1.90636064,309.021045 0.552625571,313.976862" id="Fill-5" fill="#432918"></path>
            <path d="M116.408797,335.234948 C125.299613,332.924862 131.107557,329.369776 134.85182,326 L135,326.16552 C135,326.16552 133.044743,352.488631 133.946474,364.407885 L133.709747,364.425877 C133.709747,364.425877 121.867975,365.717654 118.298999,364.425877 C114.730023,363.128702 116.408797,335.234948 116.408797,335.234948 Z M60.1283024,330.747731 C63.8563013,332.822131 68.8528678,334.786784 75.4739962,336.109147 L75.4739962,336.118143 C75.4739962,336.118143 74.8487477,360.548566 73.2223788,362.804678 C71.6014312,365.066188 62.3437782,363.461362 60,362.804678 C61.0607539,351.828169 60.2313058,333.11539 60.1283024,330.747731 Z" id="Combined-Shape" fill="#D17F0C"></path>
            <path d="M60.4943982,361.727522 C60.0714148,366.124584 59.3411358,369.293002 58.1517209,369.687471 C53.7700467,371.149539 39.6669847,371.638102 37.230311,367.253706 C34.98163,363.196828 25.5711531,304.469808 39.3343823,276.3268 C40.4786067,273.999795 41.7710559,271.884501 43.2352293,270.027963 C69.0191407,237.395609 115.086372,243.046648 121.893874,235.253172 C128.634494,227.542932 131.862906,186.76606 131.929788,185.906552 C142.406761,191.861586 155.164953,194.116211 170.650845,191.391118 C170.650845,191.391118 172.984484,227.948258 169.584349,273.243428 C166.169752,318.544027 165.202674,364.334998 160.340173,368.710346 C155.468633,373.096551 138.44084,373.096551 135.517916,368.710346 C134.991898,367.917789 134.657488,365.978015 134.464073,363.339778 C133.56207,351.351902 135.517916,324.877244 135.517916,324.877244 L135.369691,324.710771 C131.6243,328.099947 125.814604,331.675501 116.921107,333.998887 C110.981263,335.560477 103.654974,336.557506 94.6439814,336.568363 C87.3086538,336.575601 81.1482801,335.927804 75.9730601,334.878299 C69.3499354,333.548323 64.3518622,331.57236 60.6227393,329.486017 C60.7257738,331.867307 61.555472,350.686009 60.4943982,361.727522 Z M195.974777,45.5964827 C200.282257,48.9856187 204.533701,52.9935788 208.674884,57.6927387 C212.290127,61.7839971 215.814988,66.4000077 219.207894,71.5914365 C234.825743,95.4495708 241.34041,121.942324 233.96893,144.352865 C234.034004,143.310599 236.248341,105.092347 201.203985,96.9188772 C165.689648,88.6368385 123.839597,114.454651 117.520153,133.448875 C111.193478,152.452146 116.357852,171.243706 129.595064,184.492797 C111.874951,173.136433 101.009339,150.762081 94.6428968,124.195139 C91.8663903,112.599923 91.4777517,101.77736 92.7810468,91.9156356 C93.5727849,85.8737462 94.9935753,80.204612 96.8843473,74.9335657 C97.7596755,72.4643049 98.7457261,70.0904869 99.8131601,67.8105665 C98.7449728,70.0897653 97.7589389,72.4638847 96.8836243,74.9344705 L96.626942,74.8421864 C67.2928622,51.2844275 43.9275483,54.5541771 43.9275483,54.5541771 C54.221952,42.8196302 100.619978,65.4581679 100.619978,65.4581679 L100.888095,65.5986696 C102.558471,62.2906545 104.402245,59.1891875 106.358091,56.3175258 C107.086562,55.2535453 107.824072,54.2221356 108.581465,53.2232967 C116.357852,42.9110095 125.564068,35.9372325 133.091004,33.1126175 C144.197029,28.9381226 158.965296,27.9899495 174.425882,33.5107055 C175.606258,33.9341263 176.788443,34.3955464 177.97605,34.8931563 C181.168309,36.2339889 184.387683,37.8589115 187.598019,39.7986855 C187.657426,39.7034582 214.815569,-4.11246526 229.75193,0.314151692 C229.75193,0.314151692 208.252152,10.0202282 195.974777,45.5964827 Z M99.8131601,67.8105665 L99.929052,67.5643384 C99.8903154,67.646291 99.8516843,67.728367 99.8131601,67.8105665 Z" id="Combined-Shape" fill="#F9970E"></path>
            <path d="M196.735471,45.2299861 C209.084382,9.69485096 230.711338,0 230.711338,0 C239.525755,2.60083716 233.960382,48.6513792 209.50983,57.3124019 C205.344436,52.6186048 201.068135,48.6152314 196.735471,45.2299861 Z M43.8027977,54.1769382 C43.8027977,54.1769382 67.3042724,50.9109807 96.8092956,74.4414178 L97.0674737,74.5335948 C95.1656833,79.7985279 93.7384314,85.4610872 92.9402613,91.4941618 L92.4766317,91.4290957 C67.147911,97.0645441 37.7447044,61.0396058 43.8027977,54.1769382 Z M132.31714,185.376973 C131.51897,184.934162 130.729891,184.46424 129.969902,183.9654 C116.655551,170.729868 111.459263,151.961909 117.822807,132.980677 C124.179077,114.008483 166.274826,88.218806 201.996122,96.4912394 C237.244697,104.657037 235.015639,142.830964 234.952004,143.870215 L234.952004,143.891903 C229.19936,161.257326 215.048658,176.180962 190.247203,185.525179 C183.503665,188.06095 177.185575,189.823157 171.265662,190.855178 C155.687708,193.577111 142.856986,191.3251 132.31714,185.376973 Z" id="Combined-Shape" fill="#F0DDB3"></path>
            <path d="M206.536711,113.836488 C205.949751,112.408558 206.651511,110.782101 208.103171,110.204737 C209.55298,109.625551 211.204615,110.31766 211.793426,111.74559 C212.378534,113.175341 211.678626,114.798155 210.225114,115.377341 C208.775305,115.952884 207.123671,115.262597 206.536711,113.836488 Z M120.207344,152.600424 C119.620384,151.174315 120.322143,149.547858 121.775656,148.972315 C123.223613,148.393129 124.875247,149.085238 125.464059,150.513168 C126.051018,151.941099 125.347407,153.563912 123.897598,154.141277 C122.445938,154.718642 120.792452,154.030175 120.207344,152.600424 Z M166.893415,177 C163.303148,177 159.455506,176.699479 155.344937,176.029226 C154.33581,175.865305 153.652567,174.927315 153.819212,173.934685 C153.985857,172.942055 154.939435,172.25541 155.948561,172.435723 C193.950962,178.63192 207.358455,151.585027 207.489919,151.310004 C207.923195,150.401156 209.030457,150.007747 209.954409,150.439404 C210.878361,150.867419 211.274605,151.952937 210.837626,152.863607 C210.709865,153.133165 198.861426,177 166.893415,177 Z" id="Combined-Shape" fill="#594A42"></path>
            <path d="M167.40553,86.4464743 C166.308967,83.3910057 167.239544,80.1658936 169.487409,79.2460487 C171.733508,78.3262038 174.442246,80.0659924 175.538809,83.121461 C176.637137,86.1806994 175.70656,89.4058115 173.460461,90.3275414 C171.212596,91.2417315 168.503858,89.5057127 167.40553,86.4464743 Z M130.460031,100.876165 C129.363468,97.8169265 130.294045,94.5936993 132.54191,93.6757393 C134.786243,92.7558943 137.496747,94.4919132 138.595075,97.5511516 C139.693404,100.61039 138.761061,103.833617 136.514962,104.755347 C134.268863,105.671422 131.556593,103.935403 130.460031,100.876165 Z" id="Combined-Shape" fill="#594A42"></path>
            <path d="M96.1106547,74.6749263 C97.2728083,71.4010538 98.6280526,68.2952112 100.109618,65.3537849 C101.777056,62.051004 103.615929,58.9541953 105.568491,56.0868466 C106.297544,55.0244642 107.033816,53.9946036 107.789937,52.997265 C114.060875,44.6788825 121.262979,38.5394681 127.761294,35 C135.816967,42.7167271 143.228403,49.6384741 140.418662,63.6283168 C137.502451,78.1638048 116.455561,83.4269343 109.462789,95.7762272 C105.332091,103.070169 104.584992,107.653952 94.7662379,109.263787 C93.6455898,109.448078 92.5917114,109.529383 91.5829477,109.540223 C91.0830773,103.276142 91.2671451,97.2957232 92.0142438,91.6314901 C92.8064572,85.5986754 94.2230574,79.9380558 96.1106547,74.6749263 Z M121.07873,234.754284 C125.157095,230.089196 127.94879,213.295242 129.527803,200.599048 C139.564912,202.868355 145.175371,207.394321 141.306338,219.602686 C138.830446,227.418786 132.15889,239.076084 122.877903,238.570188 C120.701572,238.452748 118.869917,237.878194 117.355869,236.949513 C119.035939,236.338823 120.309977,235.632375 121.07873,234.754284 Z M106.975167,239.35234 C107.691587,254.606924 115.79418,274.344111 95.0522648,279.907165 C88.4113872,281.69045 79.5147768,281.952432 72.8305891,280.481718 C70.3131912,279.928846 68.3082959,278.618936 65.655554,278.402123 C62.6400903,278.156402 59.3972487,279.946914 56.4232905,279.249499 C50.8669693,277.943203 47.3714856,271.72971 46,265.467436 C64.3490335,245.779031 90.6346376,242.25221 106.975167,239.35234 Z M140.779399,260.158595 C154.981493,261.582332 146.754384,289.670423 132.200396,279.7404 C123.134154,273.555816 135.499179,254.770798 142.008322,260.158595 L140.779399,260.158595 Z M66.597548,292.844562 C68.7179369,291.722556 71.3490238,290.551767 72.6338892,292.120046 C72.5797516,294.994622 72.4678673,297.867391 73.1969201,300.646208 C70.4052251,301.919982 67.1479469,302.214486 64.1306786,301.862166 C63.2698909,298.418457 64.726192,295.460769 66.597548,292.844562 Z M153.672266,223.276759 C158.795486,227.564231 154.782086,235.844671 148.222415,234.3053 C138.86744,232.104651 148.401069,224.293972 153.672266,223.276759 Z M117.406217,250.875938 C120.206935,250.057469 122.661172,249.076392 122.823585,252.012398 C123.170065,253.356637 122.832608,255.461527 122.731551,256.840095 C118.205648,259.080493 115.251541,255.239294 117.406217,250.875938 Z" id="Combined-Shape" fill="#8E4208"></path>
        </g>
    </g>
</svg>