<?xml version="1.0" encoding="UTF-8"?>
<svg width="44px" height="51px" viewBox="0 0 44 51" version="1.1" xmlns="http://www.w3.org/2000/svg" xmlns:xlink="http://www.w3.org/1999/xlink">
    <!-- Generator: Sketch 55 (78076) - https://sketchapp.com -->
    <title>Jamil Head</title>
    <desc>Created with Sketch.</desc>
    <defs>
        <polygon id="path-1" points="0.0794437834 0.190498675 30.876132 0.190498675 30.876132 21.7207407 0.0794437834 21.7207407"></polygon>
    </defs>
    <g id="Jamil-Head" stroke="none" stroke-width="1" fill="none" fill-rule="evenodd">
        <g id="Group-5">
            <circle id="Oval" fill="#FFFFFF" cx="22" cy="28" r="22"></circle>
            <path d="M36.1693042,44.8207685 C38.7511777,42.9207963 31.4630425,35.3427945 33.758348,33.4275427 C33.5254328,32.8724009 18.6779196,31.5955908 18.6114799,31.0000249 C18.5179514,30.9860707 13.0758959,36.8463388 10.1297878,40.1594363 C7.18367975,43.4725337 7.71478921,44.0383788 7.71478921,44.8207685 C9.77149347,46.3516658 11.7822976,47.5379475 13.7472015,48.3796136 C15.9157338,49.3085038 18.3514703,49.8486326 21.0544108,50 C21.4148437,50.0954932 26.4797096,50.0954932 30.22526,48.3796136 C31.5879125,47.7553668 32.4137451,47.5002887 33.2420815,47 C34.0620938,46.5047388 34.8848866,45.7659572 36.1693042,44.8207685 Z" id="Fill-4" fill="#C1B3B7"></path>
            <g id="Group-13" transform="translate(8.000000, 0.000000)">
                <path d="M5.11349293,16.0711727 C3.51371312,15.6003999 0.627616481,17.5372714 1.03983805,19.7497996 C1.45178681,21.9628474 4.52721619,21.9719407 4.52721619,21.9719407 L4.56759263,22 C4.74574,21.7682509 4.93916495,21.5424774 5.14786747,21.3224197 L5.11349293,21.2920222 C1.84709393,20.3850311 2.85404948,18.6643202 3.98840904,18.0358437 C5.12440548,17.4073672 5.99168039,20.4793415 5.99168039,20.4793415 L6.01787051,20.5084401 C6.32451316,20.2525288 6.65325373,20.0098678 7,19.7781187 L6.97872053,19.7497996 C6.97872053,19.7497996 6.71299994,16.5427249 5.11349293,16.0711727" id="Fill-9" fill="#C1B3B7"></path>
                <path d="M3.03794327,27.2593545 C3.10588223,27.8586884 3.26534651,28.441346 3.50326107,29 C3.5937609,28.9252096 3.68502984,28.8516826 3.7780934,28.7794189 C3.96396415,28.6336281 4.15624423,28.4918801 4.35288266,28.3549328 C4.35416453,28.3549328 4.3554464,28.3524061 4.3554464,28.3524061 C4.64668663,28.1477432 4.95177103,27.9504077 5.26557212,27.7631791 C5.27095597,27.7606523 5.27608343,27.7568623 5.28146728,27.7540829 C5.38478577,27.6914207 5.48836065,27.6305272 5.59449925,27.572413 C5.69243391,27.5158149 5.79139406,27.4604801 5.89240519,27.4074193 C5.91701704,27.3947858 5.94214164,27.3806363 5.96700987,27.3677501 C6.0313596,27.3328816 6.09545296,27.2992764 6.15928995,27.2669347 C6.22210144,27.2333295 6.28516931,27.2014931 6.3490063,27.1701619 C6.44463359,27.1226599 6.54000451,27.0749052 6.63819554,27.0284139 C6.73382284,26.9819226 6.83047562,26.9372 6.92712841,26.8929827 C6.93507599,26.890456 6.94404906,26.8864132 6.9532785,26.8813598 C7.06890293,26.8285517 7.18478372,26.7782704 7.30271551,26.7277363 C7.5267859,26.6312163 7.75547101,26.5392443 7.98697623,26.450557 C8.14644051,26.3914322 8.30923765,26.3320547 8.47229116,26.2752039 C8.56407285,26.2421041 8.65559817,26.2110256 8.74840536,26.1812105 C8.78096478,26.1698404 8.81506245,26.1582175 8.84916012,26.147858 C8.94042907,26.1170323 9.03092889,26.0884805 9.12373608,26.0601815 C9.16449946,26.0472953 9.20500646,26.0341564 9.24576984,26.0225336 C9.31088869,26.0020673 9.37626392,25.9828644 9.44317739,25.9634088 C9.51521833,25.9426898 9.58700289,25.9219708 9.65878746,25.9027679 C9.76108046,25.8732055 9.86439896,25.8446537 9.96771746,25.817618 C10.0920586,25.7852762 10.2179379,25.7531871 10.3430482,25.7236247 C10.3497139,25.7223613 10.3548414,25.721098 10.3615071,25.7198346 C10.4673893,25.6938096 10.5737843,25.6680372 10.6809484,25.6447915 C11.219589,25.5235098 11.7707919,25.4216837 12.3319934,25.3418399 C12.43403,25.3276904 12.5360666,25.3135408 12.6393851,25.3006546 C12.6786103,25.2956012 12.7162971,25.2905478 12.7555223,25.2862524 C12.8329471,25.2761456 12.9101155,25.2670495 12.9885657,25.2594694 C13.0577866,25.2501206 13.1272638,25.2425405 13.1980228,25.2374871 C13.2567324,25.229907 13.3169801,25.2233375 13.3772279,25.2198002 C13.4661895,25.209188 13.5561765,25.2013552 13.6469327,25.1947858 C13.6897471,25.1909958 13.7320487,25.1872057 13.7748631,25.184679 C13.857159,25.1781096 13.9407367,25.1715401 14.0245708,25.1680028 C14.0994319,25.1611807 14.1727547,25.1576433 14.2473594,25.1538532 C14.3663166,25.1472838 14.4865558,25.1407144 14.6057694,25.137177 C14.6975511,25.1333869 14.7888201,25.1290915 14.8818836,25.1278282 C14.9526427,25.1253015 15.0231454,25.1240381 15.0936481,25.1227748 C15.2287569,25.1202481 15.3643784,25.1189847 15.5002564,25.1189847 C15.636647,25.1189847 15.772525,25.1202481 15.9076338,25.1227748 C15.9781365,25.1240381 16.0486392,25.1253015 16.1191419,25.1278282 C16.2122054,25.1290915 16.3037307,25.1333869 16.3955124,25.137177 C16.5172898,25.1407144 16.6372726,25.1472838 16.7577681,25.1538532 C16.8282708,25.1576433 16.8990299,25.1611807 16.9700453,25.1664867 C17.0564432,25.1715401 17.1425847,25.1781096 17.2274443,25.184679 C17.2694895,25.1872057 17.3099965,25.1909958 17.3517854,25.1947858 C17.4458744,25.2013552 17.5399635,25.2104514 17.6345653,25.2210635 C17.6853272,25.2246009 17.7366019,25.2286436 17.7873639,25.2347077 C17.8683779,25.2425405 17.9496483,25.2516366 18.0298931,25.2607327 C18.0960375,25.2683129 18.162951,25.2761456 18.2296081,25.2852418 C18.2821646,25.2905478 18.3329266,25.2968646 18.3852267,25.3046974 C18.4754702,25.3150569 18.5654573,25.3276904 18.6562135,25.3405765 C18.9110487,25.3769611 19.1638329,25.4166303 19.4150789,25.4621109 C19.5299342,25.4828299 19.6450458,25.5043069 19.759132,25.5275525 C19.8216871,25.5389227 19.8844986,25.5520616 19.9462846,25.5652004 C20.0439629,25.5844034 20.1408721,25.6048696 20.2377812,25.626852 C20.2406013,25.626852 20.2429087,25.6281153 20.2457288,25.6281153 C20.3792994,25.6579304 20.5123572,25.6887562 20.6449023,25.721098 C20.779242,25.7521764 20.9130689,25.7867922 21.0451012,25.8219134 C21.1535472,25.8497071 21.2622495,25.8795222 21.3694136,25.9106007 C21.4217138,25.9250029 21.4727321,25.9386471 21.5237504,25.9543126 C21.6183522,25.9813483 21.7134668,26.0083841 21.806274,26.0381992 C21.8196054,26.0419892 21.8326804,26.0457793 21.8457555,26.0510853 C21.9649691,26.0859538 22.0823882,26.1230964 22.1987817,26.1632709 C22.2080112,26.1660503 22.217497,26.168577 22.2254446,26.1711037 C22.3492729,26.2117836 22.4738704,26.2547376 22.5951351,26.2984495 C22.720758,26.3426668 22.8453555,26.3876421 22.9681584,26.4338808 C23.2153024,26.5268634 23.4591136,26.6246468 23.69831,26.7277363 C23.8159854,26.7782704 23.9323789,26.8285517 24.0474906,26.8813598 C24.0567201,26.8864132 24.0646676,26.890456 24.0738971,26.8929827 C24.1702935,26.9372 24.267459,26.9819226 24.36283,27.0284139 C24.4597391,27.0749052 24.5566483,27.1226599 24.6520192,27.1701619 C24.7161126,27.2014931 24.7786677,27.2333295 24.8417355,27.2669347 C24.9060853,27.2992764 24.9696659,27.3328816 25.0340156,27.3677501 C25.0588839,27.3806363 25.0837521,27.3947858 25.1086203,27.4074193 C25.2091187,27.4604801 25.3085916,27.5158149 25.4067826,27.572413 C25.5126648,27.6305272 25.6159833,27.6914207 25.7195582,27.7540829 C25.7249421,27.7568623 25.7303259,27.7606523 25.7349406,27.7631791 C26.0492545,27.9504077 26.3540825,28.1477432 26.6458355,28.3524061 C26.6458355,28.3524061 26.6471173,28.3549328 26.6486556,28.3549328 C26.8445249,28.4918801 27.0370613,28.6336281 27.2226757,28.7794189 C27.3154829,28.8516826 27.4072646,28.9252096 27.4975081,29 C27.8220768,28.2351671 28,27.4268749 28,26.5902837 C28,25.1730562 27.5000718,23.8359251 26.6155834,22.6572183 C26.4456078,22.4305731 26.2607626,22.2102446 26.0636114,21.9959802 C25.8113399,21.7213277 25.5352257,21.4580453 25.2393708,21.2056277 C24.9501815,20.9580108 24.640226,20.7207534 24.3105298,20.4973929 C22.0526489,18.9528196 18.9374551,18 15.5002564,18 C12.0425477,18 8.91197161,18.9644424 6.65024509,20.5236706 C6.32413807,20.7490525 6.01546445,20.9850465 5.7273007,21.2339267 C5.43324036,21.486597 5.16122813,21.7508901 4.90972578,22.0255427 C4.7136001,22.2395544 4.53183133,22.4591248 4.36441947,22.6847594 C3.49198064,23.8563914 3,25.183163 3,26.5902837 C3,26.8156656 3.01281867,27.0390261 3.03794327,27.2593545" id="Fill-11" fill="#C1B3B7"></path>
                <g id="Group-15" transform="translate(0.000000, 25.000000)">
                    <mask id="mask-2" fill="white">
                        <use xlink:href="#path-1"></use>
                    </mask>
                    <g id="Clip-14"></g>
                    <path d="M25.4736542,7.66290402 C26.4080954,7.41412762 26.5090281,6.8192811 26.1295913,6.37197622 C25.750906,5.92590291 24.9434446,6.59587498 24.994537,6.86829744 C25.0443772,7.14121253 25.4736542,7.66290402 25.4736542,7.66290402 M6.8647243,6.86829744 C6.91606723,6.59587498 6.10835537,5.92590291 5.72992045,6.37197622 C5.35023326,6.8192811 5.45141639,7.41412762 6.38560716,7.66290402 C6.38560716,7.66290402 6.815385,7.14121253 6.8647243,6.86829744 M4.02608672,3.75859255 C4.20916807,3.61794767 4.39575577,3.47976594 4.58760299,3.34503258 C4.58885526,3.34503258 4.59010753,3.34256945 4.59010753,3.34256945 C4.87637564,3.14404096 5.17266188,2.95191662 5.47946716,2.76816693 C5.48447622,2.7657038 5.48973574,2.7620091 5.49474481,2.75929965 C5.59592794,2.69919922 5.69686061,2.64008404 5.80054828,2.58220042 C5.89622143,2.5280115 5.99314686,2.47431521 6.091575,2.42135786 C6.11586897,2.4090422 6.14041339,2.39524866 6.16445691,2.38268668 C6.22732068,2.34869545 6.289934,2.31593579 6.35229687,2.28440769 C6.41365793,2.25164803 6.47551989,2.22036624 6.53788276,2.19006971 C6.63130184,2.14376282 6.72447046,2.0969633 6.82014362,2.05188797 C6.91381315,2.0077979 7.00798358,1.96395414 7.10240447,1.91986407 C7.11041898,1.91740093 7.11918485,1.91345992 7.12820116,1.90853366 C7.24090514,1.85828575 7.35411003,1.80779153 7.46931854,1.7587752 C7.68821472,1.66443722 7.91186951,1.5750255 8.13777837,1.48856955 C8.29356032,1.43093225 8.45259816,1.37304863 8.6121369,1.31762815 C8.70154873,1.2851148 8.79121101,1.25481827 8.8818751,1.22599962 C8.91368266,1.21466921 8.94699295,1.2033388 8.98030324,1.19323995 C9.06821234,1.16318973 9.15762417,1.13560265 9.24853871,1.10801556 C9.28836079,1.09545359 9.32768195,1.0826453 9.36750403,1.07131489 C9.43111916,1.05136352 9.49498475,1.03264371 9.56060351,1.01367759 C9.63073043,0.993479899 9.70085735,0.973282212 9.77123473,0.954562404 C9.87091514,0.92549744 9.97184781,0.897910355 10.0730309,0.871554836 C10.1942503,0.840026739 10.3172229,0.808744955 10.4396946,0.779926304 C10.4459559,0.778694737 10.4512154,0.777463171 10.4577272,0.776231605 C10.5611644,0.750861339 10.6648521,0.725737387 10.7695415,0.703076567 C11.2959944,0.584846202 11.8342185,0.485335646 12.3824607,0.407746969 C12.4823916,0.393953427 12.5818215,0.380159884 12.6830047,0.367597908 C12.721324,0.362425329 12.7578902,0.357745378 12.79646,0.353558052 C12.8720969,0.343705522 12.9484852,0.334838244 13.0241221,0.327448847 C13.0917444,0.318335256 13.1596173,0.310699545 13.2284919,0.306019593 C13.2860962,0.298630195 13.3447023,0.292226051 13.4038092,0.288777665 C13.4904661,0.278432508 13.5786256,0.270796797 13.6670356,0.264392652 C13.7088613,0.260697953 13.7501861,0.257003255 13.7920118,0.254540122 C13.8726578,0.247889664 13.9543056,0.241731832 14.0362038,0.238037134 C14.1078334,0.231632989 14.1807153,0.22793829 14.2535973,0.224489904 C14.3698076,0.217839446 14.4875206,0.211681615 14.6039814,0.207986916 C14.6933932,0.20453853 14.7825546,0.200351205 14.8737196,0.199119639 C14.9425942,0.196656506 15.0117194,0.19542494 15.080594,0.194193373 C15.2123324,0.191730241 15.3450727,0.190498675 15.4778129,0.190498675 C15.6108036,0.190498675 15.7435439,0.191730241 15.8757832,0.194193373 C15.9444074,0.19542494 16.0135325,0.196656506 16.0824072,0.199119639 C16.1730713,0.200351205 16.2627335,0.20453853 16.3521454,0.207986916 C16.4713611,0.211681615 16.5883228,0.217839446 16.7060359,0.224489904 C16.775161,0.22793829 16.8442861,0.231632989 16.9134112,0.236805567 C16.9978139,0.241731832 17.0804635,0.247889664 17.1648663,0.254540122 C17.2059406,0.257003255 17.2455122,0.260697953 17.2865866,0.264392652 C17.3785029,0.270796797 17.4704193,0.279417761 17.5625861,0.289762918 C17.6121759,0.293457617 17.662517,0.297398629 17.7121067,0.303310147 C17.7909995,0.310699545 17.8691409,0.319813136 17.9487851,0.328680413 C18.0136525,0.334838244 18.0790208,0.343705522 18.1438882,0.352326486 C18.1952311,0.357745378 18.2450713,0.363903209 18.2961638,0.371292607 C18.3840729,0.38139145 18.4722325,0.393953427 18.5606425,0.406515403 C18.8098435,0.441984512 19.0567904,0.480655694 19.3019842,0.52499208 C19.4144377,0.545189768 19.5268913,0.566126395 19.6380925,0.588787215 C19.6992031,0.599871311 19.7605642,0.612679601 19.8211739,0.62548789 C19.9165966,0.644207698 20.0110175,0.664159072 20.1056888,0.685588325 C20.1084438,0.685588325 20.1109483,0.686819892 20.1137033,0.686819892 C20.2454417,0.715884856 20.3741747,0.745935074 20.5034086,0.777463171 C20.6348966,0.808744955 20.7653828,0.841504618 20.8946167,0.875495848 C21.0005584,0.90283662 21.1065002,0.931901584 21.2111896,0.962198115 C21.2612803,0.974760092 21.3123728,0.989538887 21.362213,1.00481031 C21.4543798,1.03116583 21.5460457,1.05899923 21.6382125,1.08658631 C21.6509856,1.0900347 21.6637587,1.09397571 21.6767823,1.09914829 C21.7932431,1.13437108 21.9079507,1.17082545 22.0216565,1.20851137 C22.0306728,1.21122082 22.0396891,1.21343764 22.0474532,1.21614709 C22.1686726,1.25580352 22.2888901,1.29767677 22.4088573,1.34028897 C22.5315794,1.38339379 22.6530492,1.42723755 22.7732668,1.47231287 C23.0147038,1.56418772 23.2528848,1.65975727 23.4863073,1.7587752 C23.6012654,1.80779153 23.7152216,1.85828575 23.8276751,1.90853366 C23.8366915,1.91345992 23.8442051,1.91740093 23.8532214,1.91986407 C23.9473918,1.96395414 24.0423136,2.0077979 24.1354822,2.05188797 C24.2301536,2.0969633 24.3248249,2.14376282 24.4179936,2.19006971 C24.4806069,2.22036624 24.5417175,2.25164803 24.603329,2.28440769 C24.6661928,2.31593579 24.7283052,2.34869545 24.791169,2.38268668 C24.8154629,2.39524866 24.8400073,2.4090422 24.8640509,2.42135786 C24.962479,2.47431521 25.0596549,2.5280115 25.155328,2.58220042 C25.2590157,2.64008404 25.3599484,2.69919922 25.460881,2.75929965 C25.466391,2.7620091 25.4714001,2.7657038 25.4761587,2.76816693 C25.782964,2.95191662 26.0795007,3.14404096 26.3660192,3.34256945 C26.3660192,3.34256945 26.3670211,3.34503258 26.3685238,3.34503258 C26.5601205,3.47976594 26.7467082,3.61794767 26.9292887,3.75859255 C27.0202032,3.8302697 27.1096151,3.90096161 27.1980251,3.97362402 C29.4906745,5.85250156 30.8761821,8.29124914 30.8761821,10.9563586 C30.8761821,16.7659031 24.2940192,21.499305 16.0581132,21.7118734 C15.8665164,21.7180312 15.6721647,21.7207407 15.4778129,21.7207407 C14.6420503,21.7207407 13.8228176,21.6741874 13.0228698,21.5837905 C5.68533976,20.7628284 0.0794437834,16.3168741 0.0794437834,10.9563586 C0.0794437834,8.29124914 1.46520183,5.85250156 3.75785125,3.97362402 C3.8460108,3.90096161 3.93542263,3.8302697 4.02608672,3.75859255 M20.2729916,18.2139788 C20.8790886,18.3622594 22.8987439,17.618147 23.2528848,17.4683885 C23.6050222,17.320108 23.0224678,15.8582388 23.0224678,15.8582388 C22.0584731,16.2163783 20.8993753,16.5269793 19.5101109,16.7353603 C19.5101109,16.7353603 19.6673956,18.0642203 20.2729916,18.2139788 M7.7097537,15.8153803 L7.69197152,15.8582388 C7.69197152,15.8582388 7.10791445,17.320108 7.46180495,17.4683885 C7.81444318,17.618147 9.83384805,18.3622594 10.4396946,18.2139788 C11.0455411,18.0642203 11.2028257,16.7353603 11.2028257,16.7353603 L11.2053303,16.7200889 C9.81230907,16.5030869 8.66047439,16.1838649 7.7097537,15.8153803" id="Fill-13" fill="#DDD0D4" mask="url(#mask-2)"></path>
                </g>
                <path d="M4.04703144,18.075439 C2.95542729,18.6349202 1.98642514,20.1658643 5.12970953,20.9729507 L5.16278845,21 C5.42033142,20.7486958 5.69887687,20.5071017 6,20.2759111 L5.97479702,20.2497865 C5.97479702,20.2497865 5.14021078,17.5161889 4.04703144,18.075439" id="Fill-16" fill="#E1D5E2"></path>
                <path d="M5.1539097,31.207262 C4.87140324,31.8284435 4.9466886,32.6545191 5.64177375,33 C5.64177375,33 5.96155019,32.2755163 5.99826112,31.8968555 C6.03646285,31.5181948 5.43548441,30.5877908 5.1539097,31.207262" id="Fill-18" fill="#988189"></path>
                <path d="M7.3567473,40.0534779 C7.3567473,40.0534779 6.75109679,41.8671412 7.11807114,42.0507995 C7.48374691,42.2369024 9.57781211,43.160083 10.2060576,42.9758136 C10.8343032,42.7900163 10.9974029,41.1416759 10.9974029,41.1416759 L11,41.1227294 C9.5554768,40.853201 8.36105712,40.4571593 7.37518692,40 L7.3567473,40.0534779 Z" id="Fill-20" fill="#FFFFFF"></path>
                <path d="M19,41.1078615 C19,41.1078615 19.1631696,42.7862982 19.7914247,42.9754529 C20.4201995,43.1627409 22.5151626,42.2228786 22.8825541,42.0337239 C23.2481269,41.8464359 22.6435158,40 22.6435158,40 C21.643712,40.4523535 20.4412452,40.8446628 19,41.1078615" id="Fill-24" fill="#FFFFFF"></path>
                <path d="M24,19.7687473 C24.3519944,19.9994945 24.6829128,20.2443372 24.9916606,20.500404 C24.9916606,20.500404 25.8620666,17.4140291 27.0004371,18.0451907 C28.138534,18.6768743 29.1501756,20.4053904 25.8719202,21.3168942 C26.0821315,21.5379835 26.2794782,21.7655984 26.4609497,22 C26.4609497,22 29.5465114,21.9908641 29.9600911,19.7674421 C30.3733971,17.5445423 27.4769707,15.5983303 25.8719202,16.0715709 C24.2671435,16.5453336 24.0016423,19.7674421 24.0016423,19.7674421 L24,19.7687473 Z" id="Fill-26" fill="#C1B3B7"></path>
                <path d="M25.8461932,31.207262 C25.5644546,30.5877908 24.9637103,31.5181948 25.0017227,31.8968555 C25.0388034,32.2755163 25.3581817,33 25.3581817,33 C26.0533978,32.6545191 26.1284908,31.8284435 25.8461932,31.207262" id="Fill-28" fill="#988189"></path>
                <path d="M25,20.2702561 C25.3055823,20.5033169 25.5907749,20.7464093 25.8516055,21 C29.0231477,20.1855704 28.0444369,18.640697 26.9433871,18.0761254 C25.8420726,17.511787 25,20.2702561 25,20.2702561" id="Fill-30" fill="#E1D5E2"></path>
                <path d="M25.1073485,34 C24.9873887,34 24.8804457,33.9128912 24.8569642,33.7875906 C24.8304199,33.64581 24.9210279,33.5087379 25.0596198,33.4815328 C25.8495683,33.325888 26.3638644,32.891652 26.4700416,32.2902614 C26.5731561,31.7050893 26.2589633,31.088265 25.6688628,30.7194261 C24.5042312,29.990119 23.5108613,31.5222393 23.4692582,31.5878979 C23.3921776,31.7087515 23.2341879,31.7424964 23.1160147,31.6642816 C22.9978414,31.5855436 22.9644058,31.4233591 23.0414864,31.3022439 C23.4881455,30.5993572 24.6675808,29.4794994 25.9348164,30.2728955 C26.7063881,30.7552636 27.113486,31.5837125 26.9723417,32.3833867 C26.8286451,33.1971867 26.149468,33.7993621 25.1555877,33.9952914 C25.139508,33.9984305 25.123173,34 25.1073485,34" id="Fill-32" fill="#988189"></path>
                <path d="M5.8928331,34 C5.87700922,34 5.86067489,33.9984305 5.84459578,33.9952915 C4.85049859,33.7996291 4.17134772,33.1972087 4.02765665,32.3834309 C3.88651782,31.5840401 4.29359998,30.7556139 5.06539713,30.2729974 C6.33156303,29.4793614 7.51171847,30.5994502 7.95861556,31.3023177 C8.03543796,31.423168 8.00225885,31.5850865 7.8843454,31.6638223 C7.76617672,31.7430812 7.60844833,31.7090757 7.53111548,31.5882254 C7.48925876,31.5228302 6.49184366,29.9917981 5.33134046,30.7195157 C4.74100752,31.0886062 4.42682687,31.705152 4.52993734,32.2903082 C4.63611049,32.8919439 5.1503867,33.3259064 5.94055998,33.4815469 C6.07914657,33.5087513 6.16975106,33.6458197 6.14320777,33.7875964 C6.11972717,33.9128936 6.01278835,34 5.8928331,34" id="Fill-34" fill="#988189"></path>
                <path d="M15.4232359,42 C4.99549713,42 3.09257488,37.5207753 3.01667195,37.3302166 C2.96674921,37.2043943 3.03271854,37.0639699 3.16414779,37.016026 C3.29634115,36.9680821 3.44305287,37.0313583 3.49272089,37.1571806 C3.51029573,37.1997703 5.38418128,41.51326 15.4232359,41.51326 C25.5073739,41.51326 27.4910385,37.1944162 27.5098869,37.1506096 C27.5636302,37.0262475 27.712889,36.9675953 27.8425353,37.018703 C27.972691,37.0698107 28.0343303,37.2121822 27.9805869,37.3365442 C27.898571,37.5268596 25.8448617,42 15.4232359,42" id="Fill-36" fill="#988189"></path>
                <path d="M27.67955,38 C27.5717896,38 27.4665948,37.9538917 27.4059796,37.8701327 C27.3899438,37.8488519 27.0932818,37.4739829 26.363333,37.5577419 C26.1875808,37.5776585 26.0265815,37.4726188 26.0028486,37.3233805 C25.9794363,37.1741423 26.1029119,37.0369086 26.278664,37.0167191 C27.4454276,36.886579 27.9338776,37.5580147 27.9540827,37.5866619 C28.0454866,37.7159835 27.9960964,37.8835014 27.8443979,37.9609852 C27.7927627,37.9874498 27.7356753,38 27.67955,38" id="Fill-38" fill="#988189"></path>
                <path d="M3.17752563,38 C3.14643289,38 3.11480712,37.9875322 3.0862018,37.9612413 C3.00216255,37.8842659 2.97480093,37.7178474 3.02543769,37.5893745 C3.29781014,36.8971385 3.82514311,37.0039283 3.84752989,37.0085359 C3.94453926,37.0299481 4.01205493,37.1670943 3.99819645,37.3153531 C3.9841603,37.4630699 3.89479086,37.5636257 3.79813684,37.545466 C3.78427836,37.5424846 3.47939178,37.4888187 3.32996893,37.8685456 C3.29674411,37.9531101 3.2379344,38 3.17752563,38" id="Fill-40" fill="#988189"></path>
                <path d="M19,24.499888 C19,24.7759355 19.2239125,25 19.4998666,25 C19.7758207,25 20,24.7759355 20,24.499888 C20,24.2238405 19.7758207,24 19.4998666,24 C19.2239125,24 19,24.2238405 19,24.499888" id="Fill-42" fill="#594A42"></path>
                <path d="M10,24.499888 C10,24.7759355 10.224032,25 10.5001335,25 C10.775968,25 11,24.7759355 11,24.499888 C11,24.2238405 10.775968,24 10.5001335,24 C10.224032,24 10,24.2238405 10,24.499888" id="Fill-44" fill="#594A42"></path>
                <path d="M14.267971,37.2261658 C13.0908474,38.6578188 12.0827553,39.589418 11.2436948,40.0209634 C9.71701749,40.8061638 7.5627837,40.055408 4.78099346,37.7686961 C5.70751963,37.7748204 6.65007406,37.6894707 7.60865676,37.5126469 C8.61064421,37.3278164 10.0145037,35.6867632 11.2040382,34.0408672 C11.6680295,33.215567 12.096736,32.5868873 12.4901578,32.154828 C12.5220181,32.1057062 12.5533244,32.0572768 12.5840512,32.0096002 C12.6725705,31.8722509 12.8054502,31.7701245 12.9826904,31.7032208 C13.3052877,31.4708562 13.5999838,31.3939681 13.8667786,31.4725567 C16.1489422,32.1448039 20.0450482,33.1524911 21.3078897,32.4287376 C22.149784,31.9462352 22.9183091,31.4049957 23.613465,30.805019 C23.0457409,34.3183073 21.9228026,36.2691481 20.2446498,36.6575414 C19.3082337,36.8742664 17.8950393,36.8139263 16.0050668,36.4765209 C15.939726,36.464856 15.8709641,36.4520642 15.798781,36.4381453 C15.5182292,36.4355693 15.3091285,36.4612508 15.1714789,36.5151901 C14.9619458,36.5972975 14.6583948,36.8466015 14.2608259,37.2631022 L14.267971,37.2261658 Z" id="Combined-Shape-Copy-9" fill="#594A42" opacity="0.824474516" transform="translate(14.197229, 35.563518) rotate(22.000000) translate(-14.197229, -35.563518) "></path>
                <g id="Group" transform="translate(2.000000, 0.000000)">
                    <polygon id="Path-5-Copy-3" fill="#D22618" transform="translate(8.533458, 12.069122) rotate(-15.000000) translate(-8.533458, -12.069122) " points="2.24088601 20.5965317 14.8260309 20.4914195 12.8001058 3.54171322 4.4909479 3.61111198"></polygon>
                    <path d="M8.96215603,2.69465695 C8.85922751,1.25483828 9.29275211,0.531375617 10.2627298,0.524268946 C11.2327076,0.517162275 12.366725,4.1743415 13.6647822,11.4958066 C13.2976673,11.6667936 12.8032266,10.4172562 12.1814599,7.74719445 C11.5596933,5.07713273 10.9908127,3.38925932 10.4748179,2.68357423 L8.96215603,2.69465695 Z" id="Path-6-Copy-3" fill="#000000" transform="translate(11.306063, 6.017751) rotate(-13.000000) translate(-11.306063, -6.017751) "></path>
                </g>
            </g>
        </g>
    </g>
</svg>