<?xml version="1.0" encoding="UTF-8"?>
<svg width="80px" height="80px" viewBox="0 0 80 80" version="1.1" xmlns="http://www.w3.org/2000/svg" xmlns:xlink="http://www.w3.org/1999/xlink">
    <!-- Generator: Sketch 56.3 (81716) - https://sketch.com -->
    <title>Group 6</title>
    <desc>Created with Sketch.</desc>
    <g id="Page-1" stroke="none" stroke-width="1" fill="none" fill-rule="evenodd">
        <g id="Artboard" transform="translate(-393.000000, -1355.000000)">
            <g id="Group-6" transform="translate(393.000000, 1355.000000)">
                <rect id="Rectangle" fill="#F9970E" x="23" y="42" width="6" height="6"></rect>
                <g id="checklist" fill="#FFFFFF" fill-rule="nonzero">
                    <path d="M21.6666667,30.5263158 C20.9399762,30.5263158 20.3508772,31.1154148 20.3508772,31.8421053 L20.3508772,34.4736842 C20.3508772,35.2003747 20.9399762,35.7894737 21.6666667,35.7894737 L29.5614035,35.7894737 C30.288094,35.7894737 30.877193,35.2003747 30.877193,34.4736842 L30.877193,26.5789474 C30.877193,25.8522569 30.288094,25.2631579 29.5614035,25.2631579 L26.9298246,25.2631579 C26.2031341,25.2631579 25.6140351,25.8522569 25.6140351,26.5789474 C25.6140351,27.3056378 26.2031341,27.8947368 26.9298246,27.8947368 L28.245614,27.8947368 L28.245614,33.1578947 L22.9824561,33.1578947 L22.9824561,31.8421053 C22.9824561,31.1154148 22.3933571,30.5263158 21.6666667,30.5263158 Z" id="Path"></path>
                    <path d="M20.3508772,49.2105263 C20.3508772,49.9372168 20.9399762,50.5263158 21.6666667,50.5263158 L29.5614035,50.5263158 C30.288094,50.5263158 30.877193,49.9372168 30.877193,49.2105263 L30.877193,41.3157895 C30.877193,40.589099 30.288094,40 29.5614035,40 L21.6666667,40 C20.9399762,40 20.3508772,40.589099 20.3508772,41.3157895 L20.3508772,49.2105263 Z M22.9824561,42.6315789 L28.245614,42.6315789 L28.245614,47.8947368 L22.9824561,47.8947368 L22.9824561,42.6315789 Z" id="Shape"></path>
                    <path d="M19.6491228,63.9301676 C19.6491228,64.6663578 20.2548655,65.2631579 21.002087,65.2631579 L29.1198722,65.2631579 C29.8670937,65.2631579 30.4728364,64.6663578 30.4728364,63.9301676 L30.4728364,59.0914128 L35.3164482,55.6789576 C35.8495276,55.2292323 35.9450803,54.4525769 35.5364972,53.8903933 C35.127914,53.3282098 34.3508578,53.1671611 33.7470098,53.5195133 L30.4728364,55.8255865 C30.4162865,55.131336 29.8267875,54.5970034 29.1198722,54.5992355 L21.002087,54.5992355 C20.2548655,54.5992355 19.6491228,55.1960356 19.6491228,55.9322258 L19.6491228,63.9301676 Z M27.766908,62.5971773 L22.3550512,62.5971773 L22.3550512,59.9311967 L23.9786082,62.0639812 C24.2341215,62.3996359 24.6351242,62.5971773 25.0609796,62.5971773 C25.3429494,62.595383 25.6173044,62.5068349 25.8456988,62.3439091 L27.766908,61.0109188 L27.766908,62.5971773 Z M27.766908,57.7184328 L25.3451021,59.4246604 L23.7080154,57.2652161 L27.766908,57.2652161 L27.766908,57.7184328 Z" id="Shape"></path>
                    <path d="M37.1345029,65.2631579 L50.5847953,65.2631579 C51.3276345,65.2631579 51.9298246,64.6347856 51.9298246,63.8596491 C51.9298246,63.0845126 51.3276345,62.4561404 50.5847953,62.4561404 L37.1345029,62.4561404 C36.3916638,62.4561404 35.7894737,63.0845126 35.7894737,63.8596491 C35.7894737,64.6347856 36.3916638,65.2631579 37.1345029,65.2631579 Z" id="Path"></path>
                    <path d="M37.0927318,59.6491228 L43.6090226,59.6491228 C44.3287922,59.6491228 44.9122807,59.0207505 44.9122807,58.245614 C44.9122807,57.4704775 44.3287922,56.8421053 43.6090226,56.8421053 L37.0927318,56.8421053 C36.3729622,56.8421053 35.7894737,57.4704775 35.7894737,58.245614 C35.7894737,59.0207505 36.3729622,59.6491228 37.0927318,59.6491228 Z" id="Path"></path>
                    <path d="M50.5847953,47.7192982 L37.1345029,47.7192982 C36.3916638,47.7192982 35.7894737,48.3476705 35.7894737,49.122807 C35.7894737,49.8979435 36.3916638,50.5263158 37.1345029,50.5263158 L50.5847953,50.5263158 C51.3276345,50.5263158 51.9298246,49.8979435 51.9298246,49.122807 C51.9298246,48.3476705 51.3276345,47.7192982 50.5847953,47.7192982 Z" id="Path"></path>
                    <path d="M37.0927318,42.8070175 C36.3729622,42.8070175 35.7894737,43.4353898 35.7894737,44.2105263 C35.7894737,44.9856628 36.3729622,45.6140351 37.0927318,45.6140351 L43.6090226,45.6140351 C44.3287922,45.6140351 44.9122807,44.9856628 44.9122807,44.2105263 C44.9122807,43.4353898 44.3287922,42.8070175 43.6090226,42.8070175 L37.0927318,42.8070175 Z" id="Path"></path>
                    <path d="M49.1812865,35.7894737 C49.9241257,35.7894737 50.5263158,35.1611014 50.5263158,34.3859649 C50.5263158,33.6108284 49.9241257,32.9824561 49.1812865,32.9824561 L35.7309942,32.9824561 C34.988155,32.9824561 34.3859649,33.6108284 34.3859649,34.3859649 C34.3859649,35.1611014 34.988155,35.7894737 35.7309942,35.7894737 L49.1812865,35.7894737 Z" id="Path"></path>
                    <path d="M35.711501,30.877193 L44.9902534,30.877193 C45.7223268,30.877193 46.3157895,30.2488207 46.3157895,29.4736842 C46.3157895,28.6985477 45.7223268,28.0701754 44.9902534,28.0701754 L35.711501,28.0701754 C34.9794276,28.0701754 34.3859649,28.6985477 34.3859649,29.4736842 C34.3859649,30.2488207 34.9794276,30.877193 35.711501,30.877193 Z" id="Path"></path>
                    <path d="M63.8596491,42.8070175 L63.8596491,45.6140351 C63.8596491,46.3891716 64.4880214,47.0175439 65.2631579,47.0175439 C66.0382944,47.0175439 66.6666667,46.3891716 66.6666667,45.6140351 L66.6666667,42.8070175 C66.6666667,42.0318811 66.0382944,41.4035088 65.2631579,41.4035088 C64.4880214,41.4035088 63.8596491,42.0318811 63.8596491,42.8070175 Z" id="Path"></path>
                    <path d="M25.1973684,13.0344473 L26.5350877,13.0344473 L26.5350877,16.9428223 C26.5350877,17.6623343 27.134005,18.245614 27.872807,18.245614 L51.9517544,18.245614 C52.6905564,18.245614 53.2894737,17.6623343 53.2894737,16.9428223 L53.2894737,13.0344473 L63.9912281,13.0344473 L63.9912281,14.8453277 C63.9912281,15.5648397 64.5901454,16.1481194 65.3289474,16.1481194 C66.0677493,16.1481194 66.6666667,15.5648397 66.6666667,14.8453277 L66.6666667,11.7316556 C66.6666667,11.0121436 66.0677493,10.4288639 65.3289474,10.4288639 L53.2894737,10.4288639 L53.2894737,6.52048879 C53.2894737,5.80097681 52.6905564,5.2176971 51.9517544,5.2176971 L46.4671053,5.2176971 C45.8341066,2.18177038 43.0932188,0 39.9122807,0 C36.7313426,0 33.9904548,2.18177038 33.3574561,5.2176971 L27.872807,5.2176971 C27.134005,5.2176971 26.5350877,5.80097681 26.5350877,6.52048879 L26.5350877,10.4288639 L25.1973684,10.4288639 C24.4585665,10.4288639 23.8596491,11.0121436 23.8596491,11.7316556 C23.8596491,12.4511676 24.4585665,13.0344473 25.1973684,13.0344473 Z M39.9122807,2.61211317 C41.6137609,2.61124501 43.1308664,3.65541048 43.6980263,5.2176971 L36.1265351,5.2176971 C36.693695,3.65541048 38.2108005,2.61124501 39.9122807,2.61211317 L39.9122807,2.61211317 Z M29.2105263,7.82328049 L50.6140351,7.82328049 L50.6140351,15.6400306 L29.2105263,15.6400306 L29.2105263,7.82328049 Z" id="Shape"></path>
                    <path d="M78.0155629,57.0602845 C77.7653535,56.8091122 77.4247579,56.6678313 77.0694487,56.6678313 C76.7141395,56.6678313 76.3735439,56.8091122 76.1233345,57.0602845 L71.4194147,61.7437455 L67.6482834,57.9890162 L72.3522033,53.3055552 C72.6044729,53.0564341 72.7463709,52.7173198 72.7463709,52.363556 C72.7463709,52.0097921 72.6044729,51.6706778 72.3522033,51.4215567 C69.7503902,48.831842 65.5328511,48.831842 62.931038,51.4215567 L59.1599068,55.1762861 C57.2917187,57.0437043 56.7111109,59.8351661 57.6807705,62.2877169 L42.5562689,77.3464371 L15.9984437,77.3464371 L15.9984437,35.7127244 C15.9984437,34.9799754 15.4018385,34.3859649 14.6658885,34.3859649 C13.9299386,34.3859649 13.3333333,34.9799754 13.3333333,35.7127244 L13.3333333,78.6731966 C13.3333333,79.4059456 13.9299386,79.9999783 14.6658885,79.9999783 L43.1026166,79.9999783 C43.2809243,79.9966417 43.4570945,79.9606614 43.6223131,79.8938153 C43.7811444,79.8291449 43.9259353,79.7345391 44.0487308,79.6151958 L59.1599068,64.5564756 L64.8232664,70.1952035 L57.307655,77.7311973 C57.0553855,77.9803185 56.9134875,78.3194327 56.9134875,78.6731966 C56.9134875,79.0269605 57.0553855,79.3660747 57.307655,79.6151958 C57.5591333,79.8635473 57.8995721,80.001995 58.2537692,79.9999783 C58.6033516,79.9984905 58.9383553,79.8603069 59.1865579,79.6151958 L67.1818891,71.6546389 C67.9541772,71.9585546 68.7767219,72.1160483 69.6071396,72.1190047 C71.3754252,72.1221491 73.0724396,71.4252946 74.324385,70.1819359 L78.0955162,66.4272065 C80.6657091,63.8163555 80.6299523,59.6272656 78.0155629,57.0602845 L78.0155629,57.0602845 Z M76.1233345,64.5564756 L72.3522033,68.311205 C70.7914211,69.8632662 68.2629514,69.8632662 66.7021692,68.311205 L61.0521352,62.7520827 C59.4932941,61.1980889 59.4932941,58.6806163 61.0521352,57.1266225 L64.8232664,53.3718932 C65.5612071,52.6008423 66.5787323,52.1564165 67.6482834,52.1380068 C68.2425489,52.1404261 68.8291504,52.2717242 69.3672796,52.5227671 L64.8232664,57.0602845 C64.3066033,57.5777704 64.3066033,58.4135295 64.8232664,58.9310154 L70.4733005,64.5564756 C70.9930469,65.0708916 71.8324569,65.0708916 72.3522033,64.5564756 L76.9095421,60.0985638 C77.6041164,61.602725 77.2910425,63.3779 76.1233345,64.5564756 L76.1233345,64.5564756 Z" id="Shape"></path>
                    <path d="M59.9620241,69.160783 C59.4404591,68.6423121 58.5981121,68.6423121 58.0765471,69.160783 L49.5183538,77.7056041 C49.2652015,77.9566889 49.122807,78.2984762 49.122807,78.6550287 C49.122807,79.0115811 49.2652015,79.3533684 49.5183538,79.6044532 C49.7694386,79.8576055 50.1112259,80 50.4677783,80 C50.8243308,80 51.1661181,79.8576055 51.4172029,79.6044532 L59.9620241,71.0462599 C60.4804949,70.5246949 60.4804949,69.682348 59.9620241,69.160783 L59.9620241,69.160783 Z" id="Path"></path>
                    <path d="M15.9154396,30.9551657 L15.9154396,28.7282651 C16.3791429,28.5165486 16.8250772,28.2683246 17.2489814,27.9859649 L19.1959526,29.0994152 C19.8333579,29.4591502 20.6433677,29.2401029 21.0095696,28.6089669 L23.6766533,24.0226121 C23.8558466,23.7186552 23.9059363,23.3562958 23.8158599,23.0155628 C23.7257834,22.6748298 23.5029517,22.3837564 23.1965783,22.2066277 L21.2496071,21.0931774 C21.3029658,20.5997317 21.3029658,20.1020227 21.2496071,19.608577 L23.1965783,18.4951267 C23.5029517,18.317998 23.7257834,18.0269246 23.8158599,17.6861916 C23.9059363,17.3454586 23.8558466,16.9830992 23.6766533,16.6791423 L21.0095696,12.0927875 C20.6433677,11.4616515 19.8333579,11.2426042 19.1959526,11.6023392 L17.2489814,12.7157895 C16.8250772,12.4334298 16.3791429,12.1852057 15.9154396,11.9734893 L15.9154396,9.74658869 C15.9154396,9.01451534 15.3183925,8.42105263 14.5818977,8.42105263 L9.24773012,8.42105263 C8.51123527,8.42105263 7.91418823,9.01451534 7.91418823,9.74658869 L7.91418823,11.9734893 C7.45078977,12.1858011 7.00490191,12.4339993 6.58064634,12.7157895 L4.67368144,11.6023392 C4.36626838,11.4253205 4.0005011,11.3775499 3.65751764,11.4696243 C3.31453418,11.5616988 3.02269153,11.7860058 2.84672905,12.0927875 L0.179645277,16.6791423 C0.0015574079,16.9847098 -0.0465017106,17.3482812 0.0461288593,17.6892056 C0.138759429,18.03013 0.364421228,18.3202206 0.673055775,18.4951267 L2.67336861,19.608577 L2.67336861,20.3508772 C2.67336861,20.3508772 2.67336861,20.8413255 2.67336861,21.0931774 L0.673055775,22.2066277 C0.364421228,22.3815338 0.138759429,22.6716244 0.0461288593,23.0125488 C-0.0465017106,23.3534731 0.0015574079,23.7170446 0.179645277,24.0226121 L2.84672905,28.6089669 C3.21497648,29.2458707 4.03293092,29.4654519 4.67368144,29.0994152 C5.31443196,28.7333785 5.53533936,27.9203346 5.16709194,27.2834308 L3.16677911,23.837037 L4.7136877,23.0019493 C5.21867962,22.7089986 5.47278595,22.123226 5.34045238,21.557115 C5.18058333,20.760807 5.18058333,19.9409474 5.34045238,19.1446394 C5.47278595,18.5785284 5.21867962,17.9927558 4.7136877,17.6998051 L3.16677911,16.8116959 L4.50032099,14.5052632 L6.04722958,15.4066277 C6.53782012,15.6861285 7.15241294,15.6276943 7.58080276,15.2608187 C8.20436877,14.7359594 8.91815054,14.3273253 9.68779894,14.0545809 C10.2210705,13.8692822 10.5790215,13.3700972 10.581272,12.808577 L10.581272,11.0721248 L13.2483558,11.0721248 L13.2483558,12.8615984 C13.2485947,13.419689 13.6004809,13.9178516 14.1284934,14.1076023 C14.900961,14.3742437 15.6158197,14.7834944 16.2354896,15.3138402 C16.6638794,15.6807157 17.2784722,15.7391499 17.7690628,15.4596491 L19.3293068,14.5582846 L20.6628487,16.8647173 L19.1026047,17.6998051 C18.6141484,17.9821034 18.35769,18.5397382 18.4625046,19.0916179 C18.6223736,19.887926 18.6223736,20.7077855 18.4625046,21.5040936 C18.3061316,22.0901334 18.5697181,22.7069346 19.1026047,23.0019493 L20.6628487,23.8900585 L19.3293068,26.1964912 L17.7690628,25.2951267 C17.2784722,25.0156259 16.6638794,25.0740601 16.2354896,25.4409357 C15.6158197,25.9712815 14.900961,26.3805321 14.1284934,26.6471735 C13.6004809,26.8369242 13.2485947,27.3350868 13.2483558,27.8931774 L13.2483558,29.6296296 L10.581272,29.6296296 L10.581272,27.8401559 C10.581272,27.1080826 9.98422496,26.5146199 9.24773012,26.5146199 C8.51123527,26.5146199 7.91418823,27.1080826 7.91418823,27.8401559 L7.91418823,30.9551657 C7.91418823,31.687239 8.51123527,32.2807018 9.24773012,32.2807018 L14.5818977,32.2807018 C15.3183925,32.2807018 15.9154396,31.687239 15.9154396,30.9551657 L15.9154396,30.9551657 Z" id="Path"></path>
                    <path d="M12.2807018,23.8596491 C14.4123271,23.8596491 16.1403509,22.1316254 16.1403509,20 C16.1403509,17.8683746 14.4123271,16.1403509 12.2807018,16.1403509 C10.1490764,16.1403509 8.42105263,17.8683746 8.42105263,20 C8.42105263,22.1316254 10.1490764,23.8596491 12.2807018,23.8596491 Z M12.2807018,18.7134503 C12.9912435,18.7134503 13.5672515,19.2894582 13.5672515,20 C13.5672515,20.7105418 12.9912435,21.2865497 12.2807018,21.2865497 C11.57016,21.2865497 10.994152,20.7105418 10.994152,20 C10.994152,19.2894582 11.57016,18.7134503 12.2807018,18.7134503 Z" id="Shape"></path>
                    <path d="M55.2169736,39.3723642 C55.1429041,39.5046698 55.0933613,39.6493717 55.070753,39.799438 L54.0472086,46.9128859 C53.9747018,47.4492021 54.2319879,47.97638 54.698555,48.2474915 C54.9011409,48.3627753 55.1303361,48.4226048 55.3631943,48.421022 C55.6614494,48.4230453 55.9517268,48.3243315 56.1873469,48.140723 L61.8101947,43.6964864 C61.8489124,43.6643392 61.8845181,43.6285908 61.9165369,43.5897179 L62.036172,43.4295652 L62.036172,43.362835 L75.3289564,20.2474659 L76.6582348,17.9385982 C77.187654,17.0184421 77.3310228,15.9247233 77.0567592,14.8983714 C76.7824956,13.8720194 76.1130995,12.9972334 75.1960285,12.4667152 C74.2795453,11.9351744 73.1901922,11.791231 72.1679369,12.0665938 C71.1456817,12.3419565 70.2743875,13.0140352 69.7459869,13.9347814 L68.4167085,16.2436491 L55.1239241,39.3590181 C55.1487575,39.3832934 55.1863636,39.3886872 55.2169736,39.3723642 L55.2169736,39.3723642 Z M57.4235758,42.1349978 L58.6199264,42.8289927 L57.1577201,43.9900996 L57.4235758,42.1349978 Z M72.1519809,15.2293488 C72.519051,14.5880872 73.3343904,14.3670036 73.9730924,14.7355448 C74.6117944,15.1040859 74.8319955,15.9226928 74.4649254,16.5639544 L73.8002862,17.7250613 L72.6438139,17.0577585 L71.4873417,16.3904557 L72.1519809,15.2293488 Z M70.1580633,18.6993234 L71.3145355,19.3666262 L72.4710077,20.033929 L60.5075018,40.8404304 L59.3510296,40.1731276 L58.1945573,39.5058248 L70.1580633,18.6993234 Z" id="Shape"></path>
                </g>
            </g>
        </g>
    </g>
</svg>