<?xml version="1.0" encoding="UTF-8"?>
<svg width="108px" height="133px" viewBox="0 0 108 133" version="1.1" xmlns="http://www.w3.org/2000/svg" xmlns:xlink="http://www.w3.org/1999/xlink">
    <!-- Generator: Sketch 53.2 (72643) - https://sketchapp.com -->
    <title>Giraff head White ears</title>
    <desc>Created with Sketch.</desc>
    <g id="Giraff-head-White-ears" stroke="none" stroke-width="1" fill="none" fill-rule="evenodd">
        <path d="M70.5841452,6.99071331 C70.9401452,4.84371331 74.3501452,1.79071331 77.5791452,2.68971331 C80.8111452,3.58271331 83.8621452,6.63371331 82.2491452,10.7617133 C80.6311452,14.8897133 76.5021452,13.9917133 76.5021452,13.9917133 C76.1461452,16.3247133 74.5991452,19.2837133 74.5991452,19.2837133 C73.9411452,19.0087133 73.2881452,18.7537133 72.6351452,18.5187133 L73.8131452,13.4557133 C72.7361452,13.0947133 70.2271452,9.14971331 70.5841452,6.99071331 Z M23.4971452,18.5952133 C25.7521452,16.1152133 30.2641452,16.8762133 31.7131452,18.5092133 C33.1671452,20.1422133 33.1421452,24.8222133 32.4221452,25.6992133 L36.1221452,29.3532133 L36.2091452,29.4132133 C35.7901452,29.9652133 35.3821452,30.5352133 34.9781452,31.1232133 L34.8671452,31.0462133 C34.8671452,31.0462133 31.9781452,29.3682133 30.4321452,27.5872133 C30.4321452,27.5872133 27.4211452,30.5462133 23.8551452,27.9132133 C20.2881452,25.2812133 21.2411452,21.0752133 23.4971452,18.5952133 Z" id="Combined-Shape-Copy" fill="#FFFFFF"></path>
        <path d="M70.8443146,133.000013 C71.2559776,116.937335 70.5465452,105.770713 70.5465452,105.770713 C61.9795452,107.276713 54.9215452,106.030713 49.1255452,102.739713 C49.099622,103.072511 47.9710611,116.921569 45.468379,126.762811 C44.4681724,130.695901 41.5103452,131.226213 37.7482979,133.000013" id="Shape-Copy" fill="#F9970E"></path>
        <path d="M84.5560782,25.1985178 C86.9390327,27.0714957 89.2909878,29.2864616 91.5819452,31.8834133 C93.5819452,34.1444133 95.5319452,36.6954133 97.4089452,39.5644133 C106.048945,52.7494133 109.652945,67.3904133 105.574945,79.7754133 C105.610945,79.1994133 106.835945,58.0784133 87.4489452,53.5614133 C67.8019452,48.9844133 44.6499452,63.2524133 41.1539452,73.7494133 C37.6539452,84.2514133 40.5109452,94.6364133 47.8339452,101.958413 C38.0309452,95.6824133 32.0199452,83.3174133 28.4979452,68.6354133 C26.9619452,62.2274133 26.7469452,56.2464133 27.4679452,50.7964133 C27.9059452,47.4574133 28.6919452,44.3244133 29.7379452,41.4114133 C30.2221882,40.0467968 30.7676845,38.7349261 31.3582031,37.4749469 C30.7672678,38.7345272 30.2217808,40.0465646 29.7375452,41.4119133 L29.5955452,41.3609133 C13.3675452,28.3419133 0.441545191,30.1489133 0.441545191,30.1489133 C6.13654519,23.6639133 31.8045452,36.1749133 31.8045452,36.1749133 L31.952871,36.2525604 C32.8769452,34.4244133 33.8969452,32.7104133 34.9789452,31.1234133 C35.3819452,30.5354133 35.7899452,29.9654133 36.2089452,29.4134133 C40.5109452,23.7144133 45.6039452,19.8604133 49.7679452,18.2994133 C55.9119452,15.9924133 64.0819452,15.4684133 72.6349452,18.5194133 C73.2879452,18.7534133 73.9419452,19.0084133 74.5989452,19.2834133 C76.3649452,20.0244133 78.1459452,20.9224133 79.9219452,21.9944133 C79.9548106,21.9417867 94.9790531,-2.27271981 103.242045,0.173613313 C103.242045,0.173613313 91.3480837,5.53759595 84.5560782,25.1985178 Z M31.3582031,37.4749469 C31.3795152,37.42952 31.4008864,37.3841614 31.422316,37.338871 Z" id="Combined-Shape-Copy-2" fill="#F9970E"></path>
        <path d="M84.5557452,25.1987133 C91.3477452,5.53771331 103.242745,0.173713313 103.242745,0.173713313 C108.090745,1.61271331 105.029745,27.0917133 91.5817452,31.8837133 C89.2907452,29.2867133 86.9387452,27.0717133 84.5557452,25.1987133 Z M0.441545191,30.1489133 C0.441545191,30.1489133 13.3675452,28.3419133 29.5955452,41.3609133 L29.7375452,41.4119133 C28.6915452,44.3249133 27.9065452,47.4579133 27.4675452,50.7959133 L27.2125452,50.7599133 C13.2815452,53.8779133 -2.89045481,33.9459133 0.441545191,30.1489133 Z M49.1251452,102.739713 C48.6861452,102.494713 48.2521452,102.234713 47.8341452,101.958713 C40.5111452,94.6357133 37.6531452,84.2517133 41.1531452,73.7497133 C44.6491452,63.2527133 67.8021452,48.9837133 87.4491452,53.5607133 C106.836145,58.0787133 105.610145,79.1997133 105.575145,79.7747133 L105.575145,79.7867133 C102.411145,89.3947133 94.6281452,97.6517133 80.9871452,102.821713 C77.2781452,104.224713 73.8031452,105.199713 70.5471452,105.770713 C61.9791452,107.276713 54.9221452,106.030713 49.1251452,102.739713 Z" id="Combined-Shape-Copy-3" fill="#F0DDB3"></path>
        <path d="M90.4083452,62.6030133 C90.0913452,61.8190133 90.4703452,60.9260133 91.2543452,60.6090133 C92.0373452,60.2910133 92.9293452,60.6710133 93.2473452,61.4550133 C93.5633452,62.2400133 93.1853452,63.1310133 92.4003452,63.4490133 C91.6173452,63.7650133 90.7253452,63.3860133 90.4083452,62.6030133 Z M43.7843452,83.8862133 C43.4673452,83.1032133 43.8463452,82.2102133 44.6313452,81.8942133 C45.4133452,81.5762133 46.3053452,81.9562133 46.6233452,82.7402133 C46.9403452,83.5242133 46.5603452,84.4152133 45.7773452,84.7322133 C44.9933452,85.0492133 44.1003452,84.6712133 43.7843452,83.8862133 Z M68.9981452,97.2827133 C67.0591452,97.2827133 64.9811452,97.1177133 62.7611452,96.7497133 C62.2161452,96.6597133 61.8471452,96.1447133 61.9371452,95.5997133 C62.0271452,95.0547133 62.5421452,94.6777133 63.0871452,94.7767133 C83.6111452,98.1787133 90.8521452,83.3287133 90.9231452,83.1777133 C91.1571452,82.6787133 91.7551452,82.4627133 92.2541452,82.6997133 C92.7531452,82.9347133 92.9671452,83.5307133 92.7311452,84.0307133 C92.6621452,84.1787133 86.2631452,97.2827133 68.9981452,97.2827133 Z" id="Combined-Shape-Copy-4" fill="#594A42"></path>
        <path d="M68.8438452,48.1440133 C68.2228452,46.5230133 68.7498452,44.8120133 70.0228452,44.3240133 C71.2948452,43.8360133 72.8288452,44.7590133 73.4498452,46.3800133 C74.0718452,48.0030133 73.5448452,49.7140133 72.2728452,50.2030133 C70.9998452,50.6880133 69.4658452,49.7670133 68.8438452,48.1440133 Z M47.9210452,55.7993133 C47.3000452,54.1763133 47.8270452,52.4663133 49.1000452,51.9793133 C50.3710452,51.4913133 51.9060452,52.4123133 52.5280452,54.0353133 C53.1500452,55.6583133 52.6220452,57.3683133 51.3500452,57.8573133 C50.0780452,58.3433133 48.5420452,57.4223133 47.9210452,55.7993133 Z" id="Combined-Shape-Copy-5" fill="#594A42"></path>
        <path d="M29.7374452,41.4116133 C30.3814452,39.5996133 31.1324452,37.8806133 31.9534452,36.2526133 C32.8774452,34.4246133 33.8964452,32.7106133 34.9784452,31.1236133 C35.3824452,30.5356133 35.7904452,29.9656133 36.2094452,29.4136133 C39.6844452,24.8096133 43.6754452,21.4116133 47.2764452,19.4526133 C51.7404452,23.7236133 55.8474452,27.5546133 54.2904452,35.2976133 C52.6744452,43.3426133 41.0114452,46.2556133 37.1364452,53.0906133 C34.8474452,57.1276133 34.4334452,59.6646133 28.9924452,60.5556133 C28.3714452,60.6576133 27.7874452,60.7026133 27.2284452,60.7086133 C26.9514452,57.2416133 27.0534452,53.9316133 27.4674452,50.7966133 C27.9064452,47.4576133 28.6914452,44.3246133 29.7374452,41.4116133 Z M48.2553452,111.107213 C53.8173452,112.363213 56.9263452,114.868213 54.7823452,121.625213 C53.4103452,125.951213 49.7133452,132.403213 44.5703452,132.123213 C43.3643452,132.058213 42.408417,131.802862 41.569417,131.288862 C42.4836038,130.84463 43.0115207,130.452333 43.5733452,130.011213 C45.8333452,127.429213 47.3803452,118.134213 48.2553452,111.107213 Z M61.6348452,123.658713 C64.4738452,126.031713 62.2498452,130.614713 58.6148452,129.762713 C53.4308452,128.544713 58.7138452,124.221713 61.6348452,123.658713 Z" id="Combined-Shape-Copy-6" fill="#8E4208"></path>
    </g>
</svg>