<svg width="65" height="80" viewBox="0 0 65 80" xmlns="http://www.w3.org/2000/svg"><g fill="none" fill-rule="evenodd"><path fill="#FD425A" d="M57 12h6v23h-6z"/><g fill="#FFF" fill-rule="nonzero"><path d="M20.039 20.039h2.505v2.348h-2.505zm5.01 0h2.505v2.348h-2.505zm5.01 0h2.505v2.348h-2.505z"/><path d="M50.098 77.652H2.348V17.378h10.176v3.914H6.262v52.446h39.922V21.292h-6.262v-3.914h7.671v-2.349H34.912V7.515H17.534v7.514H0V80h52.446V26.145h-2.348v51.507zM43.836 23.64v47.75H8.61V23.64h3.913v3.757h27.398V23.64h3.914zm-6.263 1.409h-22.7v-7.671h22.7v7.67zM19.883 9.863h12.68v5.166h-12.68V9.863z"/><path d="M12.524 38.67h7.359v-7.36h-7.359v7.358zm2.349-5.01h2.661v2.66h-2.661v-2.66zm-2.349 32.563h7.359v-7.358h-7.359v7.358zm2.349-5.01h2.661v2.662h-2.661v-2.662zm-2.349-8.767h7.359v-7.358h-7.359v7.358zm2.349-5.01h2.661v2.662h-2.661v-2.662zm8.923-16.125h16.282v2.348H23.796zm0 5.01h13.777v2.348H23.796zm0 8.767h16.282v2.348H23.796zm0 5.01h13.777v2.348H23.796zm0 8.767h16.282v2.348H23.796zm0 5.01h13.777v2.348H23.796zM64.97 5.01h-1.252V0H56.36v5.01h-1.252v5.01h-5.01v13.62h2.348V12.368h2.662v30.545l3.757 3.757v2.019h2.348V46.67l3.758-3.757V5.01zm-6.262-2.662h2.662V5.01h-2.662V2.348zm-1.252 5.01h5.166v2.662h-5.166V7.358zm5.166 5.01v22.7h-5.166v-22.7h5.166zM60.04 44.524l-2.583-2.584v-4.523h5.166v4.523l-2.583 2.584z"/></g></g></svg>