<svg width="70" height="70" viewBox="0 0 70 70" xmlns="http://www.w3.org/2000/svg"><path d="M68.704 0H1.296C.58 0 0 .58 0 1.296v67.408C0 69.419.58 70 1.296 70h67.408C69.42 70 70 69.42 70 68.704V1.296C70 .581 69.42 0 68.704 0zM16.852 67.407H2.592V53.148h14.26v14.26zm0-16.852H2.592V36.296h14.26v14.26zm0-16.851H2.592v-14.26h14.26v14.26zm0-16.852H2.592V2.592h14.26v14.26zm16.852 50.555h-14.26V53.148h14.26v14.26zm0-16.852h-14.26V36.296h14.26v14.26zm0-16.851h-14.26v-14.26h14.26v14.26zm0-16.852h-14.26V2.592h14.26v14.26zm16.851 50.555H36.296V53.148h14.26v14.26zm0-16.852H36.296V36.296h14.26v14.26zm0-16.851H36.297v-14.26h14.26v14.26zm0-16.852H36.297V2.592h14.26v14.26zm16.852 50.555H53.148V53.148h14.26v14.26zm0-16.852H53.148V36.296h14.26v14.26zm0-16.851H53.148v-14.26h14.26v14.26zm0-16.852H53.148V2.592h14.26v14.26z" fill="#FFF"/></svg>