<svg width="237" height="372" viewBox="0 0 237 372" xmlns="http://www.w3.org/2000/svg"><g fill="none"><path d="M169.236 12.115c.64-3.904 6.768-9.456 12.571-7.821 5.809 1.623 11.292 7.172 8.393 14.678-2.908 7.507-10.328 5.874-10.328 5.874-.64 4.243-3.42 9.624-3.42 9.624a74.535 74.535 0 00-3.53-1.391l2.117-9.207c-1.935-.657-6.444-7.83-5.803-11.757zM84.613 33.218c4.052-4.51 12.161-3.126 14.765-.157 2.613 2.97 2.569 11.48 1.275 13.075l6.65 6.645.155.11A81.032 81.032 0 00105.246 56l-.2-.14s-5.191-3.051-7.97-6.29c0 0-5.411 5.38-11.82.593-6.41-4.787-4.698-12.435-.643-16.945zM.553 313.977c-1.946 7.112 1.831 14.361 2.326 19.023 6.88-3.083 12.49-10.746 12.984-15.858.465-4.876-2.467-8.959-2.467-8.959 1.973-22.704 24.65-31.98 24.65-31.98 1.16-2.291 2.468-4.375 3.954-6.203-31.56 2.1-34.735 36.9-34.735 36.9s-5.359 2.121-6.712 7.077" fill="#432918"/><path d="M116.409 335.235c8.89-2.31 14.699-5.865 18.443-9.235l.148.166s-1.955 26.323-1.054 38.242l-.236.018s-11.842 1.292-15.411 0c-3.569-1.297-1.89-29.191-1.89-29.191zm-56.28-4.487c3.727 2.074 8.724 4.039 15.345 5.361v.01s-.625 24.43-2.252 26.686c-1.62 2.261-10.878.656-13.222 0 1.06-10.977.231-29.69.128-32.057z" fill="#D17F0C"/><path d="M60.494 361.728c-.423 4.397-1.153 7.565-2.342 7.96-4.382 1.462-18.485 1.95-20.922-2.434-2.248-4.057-11.659-62.784 2.104-90.927 1.145-2.327 2.437-4.442 3.901-6.299 25.784-32.632 71.851-26.981 78.659-34.775 6.74-7.71 9.969-48.487 10.036-49.346 10.477 5.955 23.235 8.21 38.72 5.484 0 0 2.334 36.557-1.066 81.852-3.414 45.301-4.381 91.092-9.244 95.467-4.871 4.387-21.9 4.387-24.822 0-.526-.792-.86-2.732-1.054-5.37-.902-11.988 1.054-38.463 1.054-38.463l-.148-.166c-3.746 3.389-9.555 6.965-18.449 9.288-5.94 1.561-13.266 2.559-22.277 2.57-7.335.007-13.496-.641-18.67-1.69-6.624-1.33-11.622-3.307-15.351-5.393.103 2.381.932 21.2-.129 32.242zm135.48-316.132c4.308 3.39 8.56 7.398 12.7 12.097 3.616 4.091 7.141 8.707 10.534 13.898 15.618 23.859 22.132 50.351 14.76 72.762.066-1.042 2.28-39.26-32.764-47.434-35.514-8.282-77.364 17.536-83.684 36.53-6.327 19.003-1.162 37.795 12.075 51.044-17.72-11.357-28.586-33.73-34.952-60.298-2.777-11.595-3.165-22.418-1.862-32.28a81.636 81.636 0 014.103-16.981l-.257-.092c-29.334-23.558-52.7-20.288-52.7-20.288C54.223 42.82 100.62 65.458 100.62 65.458l.268.14a82.82 82.82 0 015.47-9.28 78.695 78.695 0 012.223-3.095c7.777-10.312 16.983-17.286 24.51-20.11 11.106-4.175 25.874-5.123 41.335.398 1.18.423 2.362.885 3.55 1.382a74.076 74.076 0 019.622 4.906c.06-.096 27.218-43.911 42.154-39.485 0 0-21.5 9.706-33.777 45.282zm-96.16 22.215l.115-.247a83.03 83.03 0 00-.116.247z" fill="#F9970E"/><path d="M196.735 45.23C209.085 9.695 230.711 0 230.711 0c8.815 2.6 3.25 48.651-21.201 57.312-4.166-4.693-8.442-8.697-12.775-12.082zM43.803 54.177S67.304 50.91 96.809 74.44l.258.093a81.196 81.196 0 00-4.127 16.96l-.463-.065c-25.33 5.636-54.732-30.39-48.674-37.252zm88.514 131.2a36.955 36.955 0 01-2.347-1.412c-13.314-13.235-18.51-32.003-12.147-50.984 6.356-18.973 48.452-44.762 84.173-36.49 35.249 8.166 33.02 46.34 32.956 47.38v.02c-5.753 17.366-19.903 32.29-44.705 41.634-6.743 2.536-13.061 4.298-18.981 5.33-15.578 2.722-28.409.47-38.949-5.478z" fill="#F0DDB3"/><path d="M206.537 113.836c-.587-1.427.115-3.054 1.566-3.631 1.45-.58 3.102.113 3.69 1.54.586 1.43-.114 3.053-1.568 3.632-1.45.576-3.101-.114-3.688-1.54zm-86.33 38.764c-.587-1.426.115-3.052 1.569-3.628 1.448-.579 3.1.113 3.688 1.541.587 1.428-.117 3.05-1.566 3.628-1.452.578-3.106-.11-3.69-1.54zm46.686 24.4c-3.59 0-7.437-.3-11.548-.97-1.01-.165-1.692-1.103-1.526-2.095a1.836 1.836 0 012.13-1.5c38.002 6.197 51.41-20.85 51.54-21.125a1.863 1.863 0 012.465-.87 1.807 1.807 0 01.884 2.424c-.128.27-11.977 24.136-43.945 24.136zm.513-90.554c-1.097-3.055-.166-6.28 2.081-7.2 2.247-.92 4.955.82 6.052 3.875 1.098 3.06.168 6.285-2.079 7.207-2.247.914-4.956-.822-6.054-3.882zm-36.946 14.43c-1.097-3.06-.166-6.282 2.082-7.2 2.244-.92 4.955.816 6.053 3.875 1.098 3.06.166 6.283-2.08 7.204-2.246.916-4.958-.82-6.055-3.879z" fill="#594A42"/><path d="M96.11 74.675a80.826 80.826 0 014-9.321 82.69 82.69 0 015.458-9.267 80.523 80.523 0 012.222-3.09C114.06 44.68 121.263 38.54 127.76 35c8.056 7.717 15.467 14.638 12.658 28.628-2.917 14.536-23.963 19.799-30.956 32.148-4.13 7.294-4.878 11.878-14.697 13.488-1.12.184-2.174.265-3.183.276-.5-6.264-.316-12.244.431-17.909a81.639 81.639 0 014.097-16.956zm24.969 160.08c4.078-4.666 6.87-21.46 8.449-34.156 10.037 2.27 15.647 6.795 11.778 19.004-2.476 7.816-9.147 19.473-18.428 18.967-2.176-.117-4.008-.692-5.522-1.62 1.68-.611 2.954-1.318 3.723-2.196zm-14.104 4.597c.717 15.255 8.82 34.992-11.923 40.555-6.64 1.783-15.537 2.045-22.221.575-2.518-.553-4.523-1.863-7.175-2.08-3.016-.246-6.259 1.545-9.233.847-5.556-1.306-9.052-7.52-10.423-13.782 18.349-19.688 44.635-23.215 60.975-26.115zm33.804 20.807c14.202 1.423 5.975 29.511-8.579 19.581-9.066-6.184 3.3-24.97 9.808-19.581h-1.229zm-74.181 32.686c2.12-1.122 4.751-2.293 6.036-.725-.054 2.875-.166 5.747.563 8.526-2.792 1.274-6.05 1.568-9.066 1.216-.861-3.444.595-6.401 2.467-9.017zm87.074-69.568c5.123 4.287 1.11 12.568-5.45 11.028-9.355-2.2.18-10.011 5.45-11.028zm-36.266 27.599c2.8-.819 5.255-1.8 5.418 1.136.346 1.345.009 3.45-.092 4.828-4.526 2.24-7.48-1.6-5.326-5.964z" fill="#8E4208"/></g></svg>