<svg width="142" height="215" viewBox="0 0 142 215" xmlns="http://www.w3.org/2000/svg"><g fill="none" fill-rule="evenodd"><ellipse fill="#E6E9EB" cx="61.5" cy="201.5" rx="61.5" ry="13.5"/><path d="M104.453 6.99c.356-2.146 3.766-5.2 6.995-4.3 3.232.893 6.283 3.944 4.67 8.072-1.618 4.128-5.747 3.23-5.747 3.23-.356 2.333-1.903 5.292-1.903 5.292a41.768 41.768 0 00-1.964-.765l1.178-5.063c-1.077-.361-3.586-4.306-3.229-6.465zM57.366 18.596c2.255-2.48 6.767-1.719 8.216-.086 1.454 1.633 1.43 6.313.71 7.19l3.7 3.654.086.06a44.568 44.568 0 00-1.23 1.71l-.112-.077s-2.889-1.678-4.435-3.459c0 0-3.01 2.96-6.577.326-3.567-2.632-2.614-6.838-.358-9.318zM11.302 173.907c-1.062 3.99 1 8.059 1.27 10.675 3.756-1.73 6.818-6.03 7.088-8.9.254-2.735-1.347-5.026-1.347-5.026C19.39 157.915 31.77 152.71 31.77 152.71c.633-1.286 1.347-2.455 2.158-3.481-17.228 1.178-18.962 20.707-18.962 20.707s-2.925 1.19-3.664 3.97" fill="#432918"/><path d="M74.692 184.582c4.92-1.284 8.134-3.26 10.206-5.133l.082.091s-1.083 14.632-.584 21.257l-.13.01s-6.553.718-8.529 0c-1.974-.721-1.045-16.225-1.045-16.225zm-31.145-2.495c2.063 1.153 4.828 2.245 8.492 2.98v.005s-.346 13.58-1.246 14.833c-.897 1.257-6.02.365-7.317 0 .587-6.1.128-16.502.071-17.818z" fill="#D17F0C"/><path d="M43.476 199.906c-.234 2.43-.638 4.18-1.296 4.399-2.424.808-10.226 1.078-11.574-1.345-1.244-2.242-6.45-34.697 1.164-50.25.633-1.286 1.348-2.455 2.158-3.481 14.264-18.034 39.749-14.911 43.515-19.218 3.729-4.261 5.515-26.796 5.552-27.271 5.796 3.29 12.854 4.537 21.42 3.03 0 0 1.292 20.204-.59 45.236-1.888 25.035-2.423 50.34-5.113 52.759-2.695 2.424-12.115 2.424-13.732 0-.291-.438-.476-1.51-.583-2.968-.5-6.625.583-21.256.583-21.256l-.082-.092c-2.072 1.873-5.286 3.849-10.206 5.133-3.286.863-7.34 1.414-12.324 1.42-4.058.004-7.466-.354-10.33-.934-3.663-.735-6.428-1.827-8.491-2.98.057 1.316.516 11.716-.071 17.818zm74.95-174.707c2.382 1.872 4.734 4.087 7.025 6.684 2 2.261 3.95 4.812 5.827 7.681 8.64 13.185 12.244 27.826 8.166 40.211.036-.576 1.261-21.697-18.126-26.214-19.647-4.577-42.799 9.691-46.295 20.188-3.5 10.502-.643 20.887 6.68 28.21C71.9 95.681 65.89 83.316 62.367 68.634c-1.536-6.408-1.75-12.389-1.03-17.839a45.077 45.077 0 012.27-9.385l-.142-.05C47.237 28.34 34.31 30.149 34.31 30.149c5.695-6.485 31.363 6.026 31.363 6.026l.148.078a45.76 45.76 0 013.026-5.13c.403-.588.811-1.158 1.23-1.71 4.302-5.699 9.395-9.553 13.56-11.114 6.143-2.307 14.313-2.83 22.866.22a40.275 40.275 0 017.287 3.475c.033-.052 15.057-24.267 23.32-21.82 0 0-11.894 5.364-18.686 25.025zm-53.2 12.276l.064-.136-.064.136z" fill="#F9970E"/><path d="M118.425 25.199C125.217 5.538 137.112.174 137.112.174c4.848 1.439 1.787 26.918-11.661 31.71-2.291-2.597-4.643-4.812-7.026-6.685zm-84.114 4.95s12.926-1.807 29.154 11.212l.142.05a45.146 45.146 0 00-2.27 9.385l-.255-.036C47.15 53.878 30.979 33.946 34.31 30.149zm48.683 72.59a20.301 20.301 0 01-1.29-.78c-7.324-7.323-10.182-17.707-6.682-28.21 3.496-10.496 26.65-24.765 46.296-20.188 19.387 4.518 18.161 25.639 18.126 26.214v.012c-3.164 9.608-10.947 17.865-24.588 23.035-3.709 1.403-7.184 2.378-10.44 2.949-8.568 1.506-15.625.26-21.422-3.031z" fill="#F0DDB3"/><path d="M124.278 62.603a1.532 1.532 0 112.84-1.148 1.532 1.532 0 01-2.84 1.148zM77.653 83.886a1.53 1.53 0 111.993.846 1.53 1.53 0 01-1.993-.846zm25.214 13.397a38.12 38.12 0 01-6.237-.533 1 1 0 01-.824-1.15.993.993 0 011.15-.823c20.524 3.402 27.765-11.448 27.836-11.6a.999.999 0 111.808.854c-.069.148-6.468 13.252-23.733 13.252zm-.154-49.139c-.621-1.621-.094-3.332 1.179-3.82 1.272-.488 2.806.435 3.427 2.056.622 1.623.095 3.334-1.177 3.823-1.273.485-2.807-.436-3.429-2.059zM81.79 55.799c-.62-1.623-.094-3.333 1.18-3.82 1.27-.488 2.805.433 3.427 2.056.622 1.623.094 3.333-1.178 3.822-1.272.486-2.808-.435-3.429-2.058z" fill="#594A42"/><path d="M63.607 41.412a44.706 44.706 0 012.216-5.16 45.754 45.754 0 013.025-5.128 45.67 45.67 0 011.23-1.71c3.476-4.604 7.467-8.002 11.068-9.961 4.464 4.27 8.57 8.102 7.014 15.845-1.616 8.045-13.28 10.958-17.154 17.793-2.29 4.037-2.703 6.574-8.144 7.465-.621.102-1.205.147-1.764.153a46.997 46.997 0 01.239-9.912 45.14 45.14 0 012.27-9.385zm13.835 88.6c2.26-2.583 3.808-11.878 4.683-18.905 5.561 1.256 8.67 3.761 6.526 10.518-1.371 4.326-5.069 10.778-10.212 10.498-1.205-.065-2.22-.383-3.06-.897.931-.338 1.637-.729 2.063-1.215zm-7.815 2.544c.397 8.443 4.887 19.367-6.607 22.446-3.68.987-8.61 1.132-12.314.318-1.395-.306-2.506-1.03-3.976-1.15-1.67-.137-3.468.854-5.116.468-3.079-.723-5.016-4.162-5.776-7.628 10.168-10.897 24.734-12.849 33.79-14.454zm18.733 11.516c7.87.788 3.31 16.334-4.754 10.838-5.024-3.423 1.828-13.82 5.434-10.838h-.68zm-41.108 18.09c1.175-.62 2.633-1.268 3.345-.4-.03 1.59-.092 3.18.312 4.719-1.547.705-3.352.868-5.024.673-.477-1.906.33-3.543 1.367-4.991zm48.252-38.503c2.839 2.373.615 6.956-3.02 6.104-5.184-1.218.099-5.541 3.02-6.104zm-20.097 15.275c1.552-.453 2.912-.996 3.002.63.192.743.005 1.908-.05 2.671-2.509 1.24-4.146-.886-2.952-3.3z" fill="#8E4208"/></g></svg>