<svg width="44" height="51" viewBox="0 0 44 51" xmlns="http://www.w3.org/2000/svg" xmlns:xlink="http://www.w3.org/1999/xlink"><defs><path id="a" d="M.08.19h30.796v21.53H.08z"/></defs><g fill="none" fill-rule="evenodd"><circle fill="#FFF" cx="22" cy="28" r="22"/><path d="M36.17 44.82c2.581-1.9-4.707-9.477-2.412-11.392-.233-.556-15.08-1.832-15.147-2.428-.093-.014-5.535 5.846-8.481 9.16-2.946 3.313-2.415 3.878-2.415 4.66 2.056 1.532 4.067 2.718 6.032 3.56 2.169.929 4.604 1.469 7.307 1.62.36.095 5.426.095 9.171-1.62 1.363-.625 2.189-.88 3.017-1.38.82-.495 1.643-1.234 2.927-2.18zM13.113 16.071c-1.6-.47-4.485 1.466-4.073 3.679.412 2.213 3.487 2.222 3.487 2.222l.04.028c.179-.232.372-.458.58-.678l-.034-.03c-3.266-.907-2.259-2.628-1.125-3.256 1.136-.629 2.004 2.443 2.004 2.443l.026.03c.307-.256.635-.5.982-.73l-.021-.03s-.266-3.206-1.866-3.678M11.038 27.26c.068.599.227 1.181.465 1.74a12.6 12.6 0 01.85-.645l.002-.003c.292-.204.597-.402.91-.589.006-.002.011-.006.016-.009.104-.063.207-.123.313-.182.098-.056.197-.112.298-.165a7.857 7.857 0 01.267-.14c.063-.034.126-.066.19-.097.096-.047.191-.095.29-.142a13.608 13.608 0 01.664-.3 18.077 18.077 0 011.82-.668 9.544 9.544 0 01.32-.097l.216-.06a12.639 12.639 0 01.684-.18c.007 0 .012-.002.019-.003a20.96 20.96 0 011.97-.378l.307-.041.117-.015c.077-.01.154-.019.233-.027.069-.009.138-.016.209-.022a2.59 2.59 0 01.18-.017 5.71 5.71 0 01.269-.025c.043-.004.085-.008.128-.01a6.69 6.69 0 01.25-.017c.074-.007.148-.01.222-.014.12-.007.24-.013.359-.017.092-.004.183-.008.276-.01a21.753 21.753 0 011.237 0c.093.002.185.006.277.01.121.004.241.01.362.017l.212.012.257.019c.042.002.083.006.125.01.094.006.188.015.283.026.05.004.102.008.152.014a14.821 14.821 0 01.598.07c.09.01.18.023.271.036a20.62 20.62 0 011.582.286l.008.001a20.79 20.79 0 011.123.283l.155.043c.094.027.19.054.282.084a7.739 7.739 0 01.393.125l.026.008a18.34 18.34 0 011.822.71 7.021 7.021 0 01.987.486 9.19 9.19 0 01.373.205c.106.059.209.12.313.182l.015.01A14.592 14.592 0 0135.498 29 6.139 6.139 0 0036 26.59c0-1.417-.5-2.754-1.384-3.933a8.593 8.593 0 00-.552-.661 10.378 10.378 0 00-1.753-1.499C30.053 18.953 26.937 18 23.5 18c-3.458 0-6.589.964-8.85 2.524-.327.225-.636.461-.924.71a9.517 9.517 0 00-.817.792 8.266 8.266 0 00-.546.659C11.492 23.856 11 25.183 11 26.59c0 .226.013.449.038.67" fill="#C1B3B7"/><g transform="translate(8 25)"><mask id="b" fill="#fff"><use xlink:href="#a"/></mask><path d="M25.474 7.663c.934-.249 1.035-.844.656-1.291-.38-.446-1.187.224-1.135.496.05.273.479.795.479.795m-18.61-.795c.052-.272-.756-.942-1.134-.496-.38.447-.279 1.042.656 1.29 0 0 .43-.52.479-.794m-2.839-3.11c.183-.14.37-.278.562-.413l.002-.002a15.6 15.6 0 01.89-.575l.015-.009a13.118 13.118 0 01.597-.338l.072-.038.188-.099c.062-.032.124-.064.186-.094.093-.046.186-.093.282-.138l.282-.132a.143.143 0 00.026-.011c.113-.05.226-.101.341-.15a17.442 17.442 0 011.78-.651l.119-.037A8.922 8.922 0 019.77.955a16.238 16.238 0 01.67-.175l.019-.004a20.422 20.422 0 011.925-.368c.1-.014.199-.028.3-.04a7.153 7.153 0 01.341-.04c.068-.01.136-.017.204-.022.058-.007.117-.014.176-.017.086-.01.175-.018.263-.025l.125-.01c.08-.006.162-.012.244-.016a13.837 13.837 0 01.568-.03c.09-.003.179-.008.27-.009l.207-.005a21.275 21.275 0 01.795 0l.206.005c.091.001.18.006.27.009a13.842 13.842 0 01.561.029c.085.005.167.01.252.018.04.002.08.006.122.01.092.006.183.014.276.025.05.003.1.007.15.013l.236.026c.065.006.13.015.195.023.051.006.101.012.152.02a20.013 20.013 0 011.81.314h.008a17.989 17.989 0 01.78.19 11.288 11.288 0 01.468.129c.092.026.184.054.276.082a13.718 13.718 0 01.383.122 15.2 15.2 0 01.387.132 18.507 18.507 0 011.078.418 21.706 21.706 0 01.367.16l.282.133a18.663 18.663 0 01.656.33l.073.04a15.314 15.314 0 01.597.337l.015.01a15.97 15.97 0 01.893.576 16.01 16.01 0 01.829.629c2.293 1.879 3.678 4.317 3.678 6.982 0 5.81-6.582 10.543-14.818 10.756a21.86 21.86 0 01-3.035-.128C5.685 20.763.079 16.317.079 10.956c0-2.665 1.386-5.103 3.679-6.982.088-.073.177-.144.268-.215m16.247 14.455c.606.148 2.626-.596 2.98-.746.352-.148-.23-1.61-.23-1.61-.965.358-2.124.669-3.513.877 0 0 .157 1.33.763 1.479M7.71 15.815l-.018.043s-.584 1.462-.23 1.61c.352.15 2.372.894 2.978.746.606-.15.763-1.479.763-1.479l.002-.015c-1.393-.217-2.545-.536-3.495-.905" fill="#DDD0D4" mask="url(#b)"/></g><path d="M12.047 18.075c-1.092.56-2.06 2.09 1.083 2.898l.033.027c.257-.251.536-.493.837-.724l-.025-.026s-.835-2.734-1.928-2.175" fill="#E1D5E2"/><path d="M13.154 31.207c-.283.621-.207 1.448.488 1.793 0 0 .32-.724.356-1.103.038-.379-.563-1.31-.844-.69" fill="#988189"/><path d="M15.357 40.053s-.606 1.814-.239 1.998c.366.186 2.46 1.11 3.088.925.628-.186.791-1.834.791-1.834l.003-.02c-1.445-.269-2.639-.665-3.625-1.122l-.018.053zM27 41.108s.163 1.678.791 1.867c.63.188 2.724-.752 3.092-.941.365-.188-.24-2.034-.24-2.034-1 .452-2.202.845-3.643 1.108" fill="#FFF"/><path d="M32 19.769a11 11 0 01.992.731s.87-3.086 2.008-2.455c1.139.632 2.15 2.36-1.128 3.272.21.221.407.449.589.683 0 0 3.086-.01 3.5-2.233.412-2.222-2.484-4.169-4.09-3.695-1.604.473-1.87 3.695-1.87 3.695L32 19.77z" fill="#C1B3B7"/><path d="M33.846 31.207c-.282-.62-.882.311-.844.69.037.379.356 1.103.356 1.103.695-.345.77-1.172.488-1.793" fill="#988189"/><path d="M33 20.27c.306.233.59.476.852.73 3.171-.814 2.192-2.36 1.091-2.924C33.843 17.512 33 20.27 33 20.27" fill="#E1D5E2"/><path d="M33.107 34a.257.257 0 01-.25-.212.261.261 0 01.203-.306c.79-.156 1.304-.59 1.41-1.192.103-.585-.211-1.202-.801-1.57-1.165-.73-2.158.802-2.2.868a.252.252 0 01-.353.076.265.265 0 01-.075-.362c.447-.703 1.627-1.823 2.894-1.03.771.483 1.178 1.312 1.037 2.111-.143.814-.823 1.416-1.816 1.612a.253.253 0 01-.049.005m-19.214 0a.253.253 0 01-.048-.005c-.995-.195-1.674-.798-1.817-1.612-.141-.799.266-1.627 1.037-2.11 1.267-.794 2.447.326 2.894 1.03a.265.265 0 01-.075.36.251.251 0 01-.353-.075c-.042-.065-1.04-1.596-2.2-.868-.59.369-.904.985-.801 1.57.106.602.62 1.036 1.41 1.192a.26.26 0 01.203.306.257.257 0 01-.25.212m9.53 8c-10.428 0-12.33-4.48-12.406-4.67a.24.24 0 01.147-.314.258.258 0 01.329.141c.017.043 1.891 4.356 11.93 4.356 10.084 0 12.068-4.319 12.087-4.362a.26.26 0 01.333-.132.24.24 0 01.138.318c-.082.19-2.136 4.663-12.558 4.663" fill="#988189"/><path d="M35.68 38a.337.337 0 01-.274-.13c-.016-.021-.313-.396-1.043-.312-.175.02-.336-.085-.36-.235-.024-.149.1-.286.276-.306 1.166-.13 1.655.541 1.675.57.091.129.042.297-.11.374a.362.362 0 01-.164.039m-24.502 0a.135.135 0 01-.092-.039c-.084-.077-.111-.243-.06-.372.272-.692.8-.585.822-.58.097.02.164.158.15.306-.014.148-.103.249-.2.23-.014-.003-.319-.056-.468.324-.033.084-.092.131-.152.131" fill="#988189"/><path d="M27 24.5a.5.5 0 101 0 .5.5 0 00-1 0m-9 0a.5.5 0 101 0 .5.5 0 00-1 0" fill="#594A42"/><path d="M21.64 37.132c-1.628.886-2.911 1.372-3.851 1.458-1.71.156-3.426-1.347-5.148-4.51.856.354 1.762.627 2.717.823.999.204 2.915-.792 4.634-1.873.74-.59 1.373-1.013 1.9-1.266l.14-.1a.786.786 0 01.485-.135c.386-.094.688-.055.906.118 1.864 1.478 5.1 3.872 6.541 3.674a14.713 14.713 0 002.746-.642c-1.842 3.045-3.614 4.433-5.316 4.164-.949-.15-2.237-.735-3.863-1.756a15.205 15.205 0 01-.176-.113c-.26-.107-.463-.162-.611-.163-.225-.003-.6.115-1.124.352l.02-.031z" fill="#594A42" opacity=".824"/><path fill="#D22618" d="M14.662 21.935l12.13-3.36-6.344-15.847-8.008 2.218z"/><path d="M18.275 3.307c-.424-1.38-.165-2.182.779-2.407.943-.225 2.87 3.083 5.783 9.925-.32.249-1.082-.857-2.289-3.32-1.206-2.46-2.14-3.977-2.802-4.549l-1.471.351z" fill="#000"/></g></svg>