<svg width="80" height="80" viewBox="0 0 80 80" xmlns="http://www.w3.org/2000/svg"><g fill="none" fill-rule="evenodd"><path fill="#F9970E" d="M23 42h6v6h-6z"/><g fill="#FFF" fill-rule="nonzero"><path d="M21.667 30.526c-.727 0-1.316.59-1.316 1.316v2.632c0 .726.589 1.315 1.316 1.315h7.894c.727 0 1.316-.589 1.316-1.315v-7.895c0-.727-.589-1.316-1.316-1.316H26.93a1.316 1.316 0 100 2.632h1.316v5.263h-5.264v-1.316c0-.727-.589-1.316-1.315-1.316zM20.35 49.21c0 .727.59 1.316 1.317 1.316h7.894c.727 0 1.316-.589 1.316-1.315v-7.895c0-.727-.589-1.316-1.316-1.316h-7.894c-.727 0-1.316.59-1.316 1.316v7.895zm2.632-6.578h5.264v5.263h-5.264v-5.263zM19.65 63.93c0 .736.605 1.333 1.352 1.333h8.118c.747 0 1.353-.597 1.353-1.333v-4.839l4.843-3.412a1.32 1.32 0 00.22-1.789 1.366 1.366 0 00-1.789-.37l-3.274 2.306a1.345 1.345 0 00-1.353-1.227h-8.118c-.747 0-1.353.597-1.353 1.333v7.998zm8.117-1.333h-5.412v-2.666l1.624 2.133a1.36 1.36 0 001.867.28l1.92-1.333v1.586zm0-4.879l-2.422 1.707-1.637-2.16h4.059v.453zm9.368 7.545h13.45c.743 0 1.345-.628 1.345-1.403s-.602-1.404-1.345-1.404h-13.45c-.743 0-1.346.629-1.346 1.404 0 .775.603 1.403 1.346 1.403zm-.042-5.613h6.516c.72 0 1.303-.63 1.303-1.404 0-.776-.583-1.404-1.303-1.404h-6.516c-.72 0-1.304.628-1.304 1.404 0 .775.584 1.403 1.304 1.403zm13.492-11.93h-13.45c-.743 0-1.346.628-1.346 1.403s.603 1.403 1.346 1.403h13.45c.743 0 1.345-.628 1.345-1.403s-.602-1.404-1.345-1.404zm-13.492-4.913c-.72 0-1.304.628-1.304 1.404 0 .775.584 1.403 1.304 1.403h6.516c.72 0 1.303-.628 1.303-1.403 0-.776-.583-1.404-1.303-1.404h-6.516zm12.088-7.017c.743 0 1.345-.629 1.345-1.404 0-.775-.602-1.404-1.345-1.404h-13.45c-.743 0-1.345.629-1.345 1.404 0 .775.602 1.403 1.345 1.403h13.45zm-13.469-4.913h9.278c.732 0 1.326-.628 1.326-1.403s-.594-1.404-1.326-1.404h-9.278c-.733 0-1.326.629-1.326 1.404 0 .775.593 1.403 1.326 1.403zm28.148 11.93v2.807a1.404 1.404 0 002.807 0v-2.807a1.404 1.404 0 00-2.807 0zM25.197 13.034h1.338v3.909c0 .72.599 1.303 1.338 1.303h24.079c.739 0 1.337-.584 1.337-1.303v-3.909h10.702v1.811c0 .72.6 1.303 1.338 1.303.739 0 1.338-.583 1.338-1.303v-3.113c0-.72-.6-1.303-1.338-1.303h-12.04V6.52c0-.719-.598-1.302-1.337-1.302h-5.485C45.834 2.182 43.093 0 39.912 0c-3.18 0-5.922 2.182-6.555 5.218h-5.484c-.739 0-1.338.583-1.338 1.302v3.909h-1.338c-.738 0-1.337.583-1.337 1.303s.599 1.302 1.337 1.302zM39.912 2.612c1.702 0 3.219 1.043 3.786 2.606h-7.571c.567-1.563 2.084-2.607 3.785-2.606zM29.211 7.823h21.403v7.817H29.211V7.823z"/><path d="M78.016 57.06a1.335 1.335 0 00-1.893 0l-4.704 4.684-3.77-3.755 4.703-4.683a1.324 1.324 0 000-1.884 6.683 6.683 0 00-9.421 0l-3.771 3.754a6.613 6.613 0 00-1.48 7.112L42.557 77.346H15.998V35.713a1.33 1.33 0 00-1.332-1.327 1.33 1.33 0 00-1.333 1.327v42.96A1.33 1.33 0 0014.666 80h28.437c.178-.003.354-.04.52-.106.158-.065.303-.16.426-.279l15.11-15.059 5.664 5.64-7.515 7.535a1.324 1.324 0 000 1.884 1.336 1.336 0 001.879 0l7.995-7.96a6.688 6.688 0 002.425.464 6.678 6.678 0 004.717-1.937l3.772-3.755a6.613 6.613 0 00-.08-9.367zm-1.893 7.496l-3.77 3.755a4.01 4.01 0 01-5.65 0l-5.65-5.559a3.968 3.968 0 010-5.625l3.77-3.755a4.006 4.006 0 012.825-1.234 4.105 4.105 0 011.72.385l-4.545 4.537a1.323 1.323 0 000 1.871l5.65 5.625c.52.515 1.36.515 1.88 0L76.91 60.1a3.967 3.967 0 01-.787 4.457z"/><path d="M59.962 69.16a1.337 1.337 0 00-1.885 0l-8.559 8.546a1.337 1.337 0 000 1.898 1.337 1.337 0 001.9 0l8.544-8.558a1.337 1.337 0 000-1.885zM15.915 30.955v-2.227c.464-.211.91-.46 1.334-.742l1.947 1.113c.637.36 1.447.141 1.814-.49l2.667-4.586a1.319 1.319 0 00-.48-1.816l-1.947-1.114a6.904 6.904 0 000-1.484l1.947-1.114a1.319 1.319 0 00.48-1.816l-2.667-4.586a1.338 1.338 0 00-1.814-.49l-1.947 1.113a9.591 9.591 0 00-1.334-.743V9.747a1.33 1.33 0 00-1.333-1.326H9.248a1.33 1.33 0 00-1.334 1.326v2.226a9.75 9.75 0 00-1.333.743l-1.907-1.114a1.34 1.34 0 00-1.827.49L.18 16.68a1.319 1.319 0 00.493 1.816l2 1.114v1.484l-2 1.114a1.319 1.319 0 00-.493 1.816l2.667 4.586a1.343 1.343 0 001.827.49c.64-.366.861-1.179.493-1.816l-2-3.446 1.547-.835c.505-.293.759-.879.626-1.445a6.127 6.127 0 010-2.412 1.322 1.322 0 00-.626-1.445l-1.547-.888L4.5 14.505l1.547.902a1.34 1.34 0 001.534-.146 6.798 6.798 0 012.107-1.206c.533-.186.891-.685.893-1.246v-1.737h2.667v1.79c0 .558.352 1.056.88 1.246a6.504 6.504 0 012.107 1.206 1.34 1.34 0 001.534.146l1.56-.902 1.334 2.307-1.56.835c-.489.282-.745.84-.64 1.392a6.12 6.12 0 010 2.412 1.322 1.322 0 00.64 1.498l1.56.888-1.334 2.306-1.56-.9a1.34 1.34 0 00-1.534.145c-.62.53-1.334.94-2.107 1.206-.528.19-.88.688-.88 1.246v1.737h-2.667v-1.79a1.33 1.33 0 00-1.333-1.325 1.33 1.33 0 00-1.334 1.325v3.115a1.33 1.33 0 001.334 1.326h5.334a1.33 1.33 0 001.333-1.326z"/><path d="M12.28 23.86a3.86 3.86 0 100-7.72 3.86 3.86 0 000 7.72zm0-5.147a1.287 1.287 0 110 2.574 1.287 1.287 0 010-2.574zm42.937 20.659a1.258 1.258 0 00-.146.427l-1.024 7.114a1.336 1.336 0 00.652 1.334c.202.116.431.176.664.174.298.002.589-.097.824-.28l5.623-4.445a.8.8 0 00.107-.106l.12-.16v-.067l13.292-23.116 1.33-2.308a4.02 4.02 0 00.398-3.04 4.002 4.002 0 00-1.861-2.432 3.974 3.974 0 00-3.028-.4 3.99 3.99 0 00-2.422 1.868l-1.33 2.309-13.292 23.115a.08.08 0 00.093.013zm2.207 2.763l1.196.694-1.462 1.161.266-1.855zm14.728-26.906a1.331 1.331 0 011.821-.493c.639.368.859 1.187.492 1.828l-.665 1.161-1.156-.667-1.157-.668.665-1.16zm-1.994 3.47l1.157.668 1.156.667L60.508 40.84l-1.157-.667-1.156-.667 11.963-20.807z"/></g></g></svg>